<svg width="92" height="46" viewBox="0 0 92 46" fill="none" xmlns="http://www.w3.org/2000/svg"><g clip-path="url(#a)"><path opacity=".4" d="M81.366-.517s1.217-2.522 4.3-2.206S88.382.122 89.85-.115s3.523 0 3.963 1.58 2.422.712 2.496 2.055-2.275 2.292-4.99 1.107-4.037.92-7.854.54c-3.816-.382-4.288-.856-6.548-.62-2.259.238-2.205-1.428-1.177-2.534 1.027-1.107 5.186-1.002 5.626-2.53" fill="#fff"/><path opacity=".6" d="M45.674-2.866s.695-1.44 2.454-1.26 1.55 1.624 2.388 1.489c.838-.136 2.011 0 2.262.902.252.902 1.383.406 1.425 1.173S52.904.746 51.354.069s-2.304.526-4.483.308C44.693.16 44.422-.11 43.133.024c-1.289.136-1.258-.815-.672-1.446.587-.632 2.961-.572 3.213-1.444" fill="#fff"/><path d="M42.79 8.006c-.79.81-1.264.781-1.56.447-.295-.333-.299-.845.492-1.655 1.44-1.476 2.67-1.586 2.67-1.586s-.14 1.296-1.601 2.794m1.569 7.425c-.505 1.043-.962 1.18-1.341.967-.38-.212-.538-.695-.033-1.737.919-1.898 2.05-2.431 2.05-2.431s.256 1.275-.676 3.201m3.779 19.402-.205.032c-.004-.034-.481-3.448-2.595-8.09-1.951-4.283-5.736-10.52-12.685-15.903l.12-.18c6.989 5.413 10.793 11.686 12.754 15.995 2.127 4.671 2.606 8.112 2.61 8.146" fill="#ACC9C5"/><path d="m40.026 17.872-.195-.074c2.498-7.617-1.628-15.058-1.67-15.132l.177-.116c.043.075 4.22 7.604 1.688 15.322m-3.794-2.749c-2.044.516-3.828-.196-3.849-.204l.073-.208c.023.009 2.309.918 4.632-.117l.08.206c-.315.14-.629.245-.936.323m-3.976-5.425c1.29.765 1.506 1.32 1.3 1.723-.207.404-.758.503-2.048-.262-2.349-1.393-3.11-2.797-3.11-2.797s1.474-.077 3.858 1.336" fill="#ACC9C5"/><path d="M32.77 14.083c1.444.31 1.805.77 1.721 1.221s-.581.726-2.025.415c-2.63-.567-3.749-1.658-3.749-1.658s1.385-.553 4.053.022m4.768-2.928c.485 1.053.318 1.531-.065 1.736-.384.205-.838.057-1.324-.995-.883-1.918-.616-3.216-.616-3.216s1.109.529 2.005 2.475m1.034-9.589c.66 1.416.547 2.005.165 2.212-.383.207-.89-.047-1.55-1.463-1.204-2.58-1.093-4.201-1.093-4.201s1.256.835 2.477 3.452m20.696 55.159S40.07 14.794 29.695 20.828s18.648 25.03 23.877 37.427z" fill="#ACC9C5"/><path d="M51.901 51.945S31.836 24.593 23.657 31.067s18.033 14.938 23.59 23.111z" fill="#92BCB5"/><path d="M49.308 53.219c-3.742-5.72-9.603-10.5-13.861-13.504-4.616-3.256-8.392-5.182-8.43-5.2l.11-.254c.038.02 3.83 1.953 8.462 5.22 4.276 3.018 10.165 7.822 13.93 13.577z" fill="#68A1BF"/><path d="M55.313 66.57c-4.244.066-8.386.19-12.715.335a5 5 0 0 1-.233-.539c-2.444-2.713-2.02-2.309-7.514-1.259-5.495 1.047-4.228-6.625-8.904-8.07-4.724-1.457-9.71-5.59-6.54-9.643 3.184-4.064 6.411-2.618 10.136-1.992 2.54.426 6.405-3.956 9.877-4.453 2.164-.308 3.423.947 4.519 2.943 2.245 4.13 3.836 5.02 5.833 5.288.668.09 1.339.107 2.29.165 1.516.096 4.587.47 5.717 1.559 4.955 4.769 2.782 11.465-2.467 15.667" fill="#CCD39C"/><path d="M39.793 49.215c3.439-2.912 4.164-5.366 4.193-5.47l-.306-.1c-.007.024-.734 2.462-4.086 5.299z" fill="#C2C68E"/><path d="M39.002 52.882c1.018-1.665 1.086-4.163.195-7.225a24 24 0 0 0-1.656-4.143l-.277.173c.039.071 3.812 7.179 1.47 11.006z" fill="#C2C68E"/><path d="M21.1 41.146c-1.017-.459-1.184-.943-1.017-1.371.168-.43.605-.641 1.622-.182 1.853.835 2.446 2.016 2.446 2.016s-1.17.385-3.05-.463" fill="#ACC9C5"/><path opacity=".6" d="M72.065 56.592s13.82-52.52 26.92-47.948c13.099 4.571-16.506 32.984-20.078 48.41z" fill="#ACC9C5"/><path d="M81.846 53.838s16.91-31.489 26.26-26.124c9.349 5.366-16.542 18.34-21.14 27.679z" fill="#CCD39C"/><path d="M84.703 54.735c3.067-6.511 8.453-12.396 12.432-16.186 4.313-4.108 7.945-6.707 7.981-6.732l-.15-.244c-.036.026-3.683 2.636-8.01 6.758-3.997 3.807-9.409 9.72-12.495 16.272z" fill="#C2C68E"/><path d="M106.911 59.335c-1.081.333-1.838 1.061-2.457 2.067-1.452 2.347-1.858 5.586-5.276 4.932-4.034-.774-4.392-1.145-5.69.183a7 7 0 0 0-1.13 1.554c-.015.025-2.37.004-5.603-.13-2.903-.119-5.164-.264-5.23-.264-4.388-3.45-6.733-9.37-2.24-13.688.56-.54 1.458-.775 2.207-.956 4.553-1.1 6.28.908 9.39-4.376.572-.973.953-1.91 1.863-2.643 3.453-2.77 8.212 3.694 11.052 3.218 3.234-.54 6.035-1.793 8.796 1.737 2.75 3.519-1.591 7.11-5.682 8.366" fill="#ACC9C5"/><g opacity=".5"/><path d="M80.948 16.58c.122-1.376.565-1.743 1.065-1.692.501.052.87.503.748 1.878-.222 2.506-1.236 3.623-1.236 3.623s-.803-1.267-.577-3.81" fill="#ACC9C5"/><path d="M55.91 10.037s.845 7.805-2.835 8.017c-9.402.542-14.574 7.757-9.089 8.875 2.44.497-1.01 3.472-6.149 6.63-6.064 3.728-5.82 15.526 4.593 16.884 10.413 1.357 17.325-7.191 22.768-3.225s14.548-4.624 19.2-4.323 8.424 1.018 9.777-3.213C95.53 35.45 83 34.432 83.642 27.573c.642-6.86-11.263-7.55-8.644-8.784 9.4-4.433-2.574-7.764-5.794-12.94-2.17-3.484-13.295 4.188-13.295 4.188" fill="#331832"/><path d="M86.755 67.941c-17.075-.7-16.668-1.692-34.2-1.32-.245-9.782.236-23.889 3.543-33.057-.852-.6-4.978-3.49-5.705-4 0-.006.112-.187.12-.196.385-.58 1.741-2.36 4.773-3.922.197 0 3.875-2.473 12.008-2.646 1.397-.028 2.783.148 4.158.42.036.02 2.047.372 3.057.713 3.554 1.19 5.96 2.43 7.567 3.49 2.461 1.62 3.01 2.752 3.03 2.775 0 .066-1.704 3.755-4.116 4.943.073.236 1.07 3.73 1.07 3.752 2.658 9.56 4.59 19.111 4.695 29.048" fill="#73B3CE"/><path d="M59.995 33.384c.275-.797-1.65-2.301-4.301-3.36-2.65-1.058-5.022-1.27-5.296-.472-.275.797 1.65 2.302 4.3 3.36s5.022 1.27 5.297.472m9.809-24.156s-.077 1.094.802 3.162c1.286 3.026-1.883 4.915-2.874 4.157-.123-.094-.766-5.502-.766-5.502l.974-.868z" fill="#331832"/><path d="M65.72 10.044s3.144 2.606 2.664 5.893c0 0 1.296-2.104 1.23-2.797-.065-.692-.842-3.103-.842-3.103z" fill="#331832"/><path d="M67.107 13.575a.11.11 0 0 1-.108-.1c-.01-.064.03-.125.09-.134.007-.001.68-.124.926-.594a.106.106 0 0 1 .149-.046.123.123 0 0 1 .041.161c-.297.57-1.05.706-1.081.712z" fill="#EC865C"/><path d="M71.469 23.224c-.836-.23-1.683-.552-2.317-1.635l-2.045-4.114-.516-.262-3.387-5.787 1.368 6.36.82 3.816s.253.983-1.198 1.36c0 0-1.043 3.283.882 3.517 3.137.382 6.399-3.254 6.393-3.255" fill="#FFB27D"/><path d="m67.158 18.09.01.108c.159 2.098-1.76 3.414-1.76 3.414l-.015-.01-.82-3.816c.593-.355 1.453-.762 2.018-.572.296.099.511.36.567.877" fill="#E9845C"/><path d="M64.17 19.956c-1.661.28-3.293-.425-4.543-1.774a7.8 7.8 0 0 1-1.082-1.5 9.4 9.4 0 0 1-1.077-3.234c-.6-4.117 1.428-7.88 4.528-8.403 3.101-.523 6.101 2.39 6.701 6.508s-1.427 7.88-4.527 8.403" fill="#FFB27D"/><path d="M68.629 12.313c.482-.808.39-1.797-.207-2.21s-1.471-.093-1.954.714c-.482.808-.39 1.797.207 2.21s1.471.093 1.954-.714" fill="#FFB27D"/><path d="M60.842 17.45s1.868.082 3.737-1.326c0 0 .028 1.828-1.583 2.225-1.37.337-2.154-.9-2.154-.9" fill="#fff"/><path d="M62.55 12.664a.13.13 0 0 1-.097-.067.145.145 0 0 1 .044-.19c.036-.024.827-.645 1.712.117a.15.15 0 0 1 .023.195c-.043.06-.116.058-.181.025-.648-.325-1.391-.118-1.421-.099a.12.12 0 0 1-.08.02m-4.454 1.485a.12.12 0 0 1-.113-.022.146.146 0 0 1-.026-.195c.025-.036.535-.934 1.623-.592a.14.14 0 0 1 .091.17c-.018.074-.087.102-.158.098-.715-.034-1.328.461-1.35.491a.13.13 0 0 1-.067.05m5.039.322a1 1 0 0 1-.516-.125.2.2 0 0 1-.06-.262c.05-.09.157-.12.24-.066.027.016.575.328 1.47-.465a.17.17 0 0 1 .249.026.2.2 0 0 1-.025.268c-.562.499-1.03.624-1.358.624m-3.819 1.158a1 1 0 0 1-.517-.126.2.2 0 0 1-.06-.262c.05-.09.156-.12.241-.066.028.017.576.327 1.469-.465a.17.17 0 0 1 .25.026.2.2 0 0 1-.025.269c-.562.498-1.03.623-1.358.623" fill="#080435"/><path d="M85.107 30.197s-1.84 3.693-4.118 4.942l1.518 5.991-4.857-1.361.304-6.699 5.667-3.485z" fill="#92A5E6"/><path d="M51.034 30.013S38.31 45.638 40.043 49.456s8.232 6.384 14.269-3.093c3.604-5.659 3.002-16.98-3.278-16.35" fill="#FFB27D"/><path d="M58.373 8.67s1.353 2.178 5.44 1.367c2.985-.592 4.904.618 5.124 3.227s10.565.892 10.565.892 2.319-1.639-4.23-4.389c-2.798-1.174-5.845-11.913-16.469-7.843-6.016 2.305-7.609 7.954-4.981 11.046 3.18 3.742-2.344 5.245-2.344 5.245l6.453.533s-1.368-3.024-.463-5.299c.906-2.276-.286-2.743.905-4.78" fill="#331832"/><path d="M87.812 34.66s5.138 7.576 4.945 10.558c-.194 2.983-8.359-4.314-8.359-4.314z" fill="#FFB27D"/><path d="M65.252 30.435s-7.985-8.515-16.482-3.356c-8.889 5.397-1.83 20.52 7.816 26.713s12.142 8.716 14.192 8.093S100.275 34.606 89.75 19.95c-7.552-10.517-20.668-7.7-24.497 10.486" fill="#FF6247"/><path d="M86.758 22.778s-1.033-4.423-5.655-5.372c-4.623-.948-6.8 1.384-5.81 2.827s4.204.082 5.615 2.148 6.231 4.374 5.85.397" fill="#FFC9BC"/><path opacity=".3" d="M53.251 37.912c-.723-1.106-3.354-6.951-5.112-6.049-2.373 1.218-.913 9.23 2.254 13.498C53.56 49.63 64.955 60.297 69.78 59.485c2.439-.411 7.906-5.421 7.633-8.603-.823-9.583-11.04-.443-13.365-4.313s-8.696-5.444-10.797-8.657" fill="#D05F47"/><path d="M61.636 48.385s-10.062-3.309-14.684-4.338c-4.142-.923-7.195.665-6.91 5.409.213 3.512 4.983 4.997 12.043 5.48 7.06.482 14.374-.387 14.374-.387.367-1.254-4.823-6.164-4.823-6.164" fill="#FFB27D"/><path d="M65.975 54.54c-2.586.05-5.668-.7-5.668-.7s-1.084-4.667-.733-5.122c1.352-1.758 3.932-3.132 4.826-4.099.388-.419 1.782-1.73 2.219-1.369.38.314-.27 1.925-.663 2.652 3.563-.687 9.05.035 1.68 2.061l.003.014c.763-.13 5.97-.833 5.732.336-.21 1.03-4.19 1.663-5.443 1.892l.002.038c1.292-.113 5.182-.596 4.69.314-.62 1.142-4.675 2.243-4.675 2.243s4.228-.928 3.664.485c-.384.964-3.923 1.14-5.15 1.264a2 2 0 0 1-.484-.01m1.792-12.579c2.346 1.171 5.447 1.826 5.447 1.826s2.744-3.795 2.594-4.364c-.577-2.197-2.42-4.576-2.875-5.85-.197-.551-.98-2.358-1.515-2.217-.466.122-.478 1.878-.39 2.714-3-2.179-8.29-3.906-2.31 1.154l-.008.011c-.65-.451-5.148-3.359-5.37-2.187-.196 1.034 3.208 3.344 4.267 4.099l-.016.034c-1.139-.666-4.515-2.8-4.407-1.754.137 1.313 3.433 4.085 3.433 4.085s-3.518-2.687-3.533-1.15c-.01 1.048 3.16 2.749 4.236 3.397q.235.14.447.202" fill="#FFB27D"/><path d="M47.348 44.218q-.009 0-.017-.002c-1.35-.337-3.119-.092-3.137-.09-.043.005-.077-.025-.083-.068-.005-.044.024-.084.065-.09.017-.003 1.811-.25 3.189.092.04.01.064.053.055.096a.08.08 0 0 1-.073.062" fill="#E9845C"/><path d="M74.048 38.22s9.712.39 13.719 1.848c3.928 1.43 6.408 5.495 4.103 7.814-2.39 2.402-5.98 1.652-12.619-.978S69.45 42.68 69.45 42.68c.136-1.305 4.599-4.46 4.599-4.46" fill="#FFB27D"/><path d="M90.27 41.55a.07.07 0 0 1-.048-.018c-.666-.593-1.767-1.092-1.777-1.097a.083.083 0 0 1-.04-.105c.016-.04.06-.06.097-.042.046.02 1.132.514 1.815 1.12a.084.084 0 0 1 .01.113.07.07 0 0 1-.058.029" fill="#E9845C"/><path opacity=".7" d="M64.728 14.926c-.063-.862.642-1.146 1.128-1.214.761-.106 1.169.52 1.169 1.047 0 .79-.492 1.35-1.113 1.244-.484-.082-1.128-.305-1.184-1.077" fill="#EF8062"/><path opacity=".5" d="m59.683 18.164-.056.018a7.8 7.8 0 0 1-1.082-1.5 1 1 0 0 1 .155-.195c.348-.333.817-.007 1.036.384.33.584.31 1.164-.053 1.293" fill="#EF8062"/></g><defs><clipPath id="a"><path fill="#fff" d="M136 0H0v69h136z"/></clipPath></defs></svg>