<svg width="79" height="53" viewBox="0 0 79 53" fill="none" xmlns="http://www.w3.org/2000/svg"><g clip-path="url(#a)"><path d="M47.543 59.776c.264.458.571.672.905.737a8 8 0 0 0 1.004-.357c.77-.34 2.689-1.24 3.034-2.061.373-.89-.879-2.783-1.279-3.683a70 70 0 0 0-4.23-8.06c-.258-.422-.525-.853-.643-1.334-.116-.473-.083-.968-.049-1.454q.255-3.598.512-7.195c.106-1.5.212-3.02-.054-4.5s-.946-2.943-2.145-3.85c-1.286-.974-3.874-1.429-4.309.503-1.115 4.962-.933 10.332-.49 15.377.11 1.242.255 2.493.667 3.669.721 2.064 2.206 3.759 3.287 5.634l3.78 6.56a.03.03 0 0 1 .01.014" fill="#592B4B"/><path d="M39.308 62.133c.08-.318.093-8.108.103-11.26.003-.905.616-4.757.805-5.792.641-3.518 1.012-7.134 1.597-10.677.186-1.128.36-2.346-.161-3.363-.601-1.173-1.965-1.742-3.26-1.982-.205-.037-.43-.067-.614.032-.216.117-1.372.451-1.447.685-1.937 6.005-2.28 12.029-2.76 18.303-.074.948-.143 14.394.563 14.394.111-.01 5.126-.151 5.174-.34" fill="#592B4B"/><path d="M37.208 17.02c-1.235.374-2.381 1.027-3.435 1.77-.709.5-1.44 1.031-2.076 1.625-.56.524-.957 1.052-1.623 1.492-.328.218-.697.46-.832.852-.093.272-.049.567-.033.854a4.33 4.33 0 0 1-.622 2.475c-.142.232-.307.456-.39.715-.082.26-.062.575.133.765.208.204.54.204.829.164 1.236-.174 2.358-.817 3.357-1.569a16 16 0 0 0 1.139-.948c.325-.297.613-.648.977-.892.77-.518 1.433-1.367 2.043-2.061.572-.652 1.284-1.325 1.669-2.108.444-.903.53-2.113.466-3.099-.006-.104-.024-.222-.11-.279-.067-.045-.154-.038-.235-.027a8 8 0 0 0-1.257.271" fill="#D7664A"/><path d="M43.823 18.653c-.365-.764-1.166-1.247-1.992-1.437-1.143-.266-2.925-.509-4.037.01-.737.345-1.125 1.15-1.353 1.89-.29.939-.549 1.526-1.039 2.403a12 12 0 0 0-1.521 6.081c.027 1.246.38 2.671 1.499 3.22.512.253 1.104.272 1.675.282a86 86 0 0 0 5.92-.106c.19-.01.39-.024.549-.127.175-.116.268-.32.352-.514.548-1.264.911-2.182.99-3.546.081-1.392.086-2.776.086-4.17-.018-.787-.02-1.294-.399-1.954-.37-.645-.413-1.374-.73-2.032" fill="#E6D779"/><path d="M35.22 18.924c-.173.597-.088 1.255-.393 2.094-.646 1.771-.976 3.519-1.243 5.442a119 119 0 0 0-1.09 12.942c.252.123 4.026.733 4.047.552.355-3.177.729-6.353 1.102-9.527l.565-4.81c.093-.803.577-3.561.67-4.176.226-1.514.4-3.036.532-4.56.006-.07.007-.15-.044-.198-.037-.035-.093-.042-.144-.045-.975-.056-2.018.463-2.834.95-.748.445-1.035.872-1.169 1.336" fill="#D7664A"/><path d="M42.134 14.244c.024-.711.38-2.309-.078-2.901-.364-.47-.953-.457-1.474-.64-.25-.087-.489-.029-.74-.054-.294-.03-.575-.095-.877-.092-.177.002-.37.02-.503.136-.137.12-.18.313-.214.492-.154.801-.31 1.614-.273 2.433.029.633.116 1.563.576 2.045.361.378.91.567.914.531a5 5 0 0 0-.052.797c.022.47.126 1.044.62 1.237.655.256 2.068.22 2.193-.705a1.7 1.7 0 0 0 0-.342 36 36 0 0 1-.1-2.213q-.004-.36.008-.724" fill="#EB9D83"/><path d="M39.392 16.197c-.114 0-.206.002-.32-.008q-.127-.012-.254-.02c.054.087.11.169.156.26.06.122.092.253.133.381.153-.001.309-.061.448-.133.303-.154.589-.372.74-.675a2.1 2.1 0 0 1-.903.195" fill="#0F171E"/><path d="M48.151 24.564c.162 1.012.236 2.028.28 3.05.016.39.013.81.094 1.19.197.927 1.242 9.54 1.566 11.838a.49.49 0 0 1-.487.56 56 56 0 0 1-5.78-.34.82.82 0 0 1-.713-.653 76.7 76.7 0 0 1-1.492-12.564c-.035-.963.57-11.333.551-11.34 1.607.57 3.254.78 4.733 1.704.385.24.772.517.982.92.214.41.214.896.198 1.36-.03.804-.143 1.606-.174 2.409-.024.627.142 1.242.242 1.866" fill="#D7664A"/><path d="M43.539 35.65c.281.936.779 1.773 1.578 2.32a3.42 3.42 0 0 0 3.017.4c2.738-.96 2.544-4.125 2.541-6.482-1.554.53-3.253-.216-4.593-1.164-.489-.346-1.878-2.169-2.572-1.47-.282.284-.129 1.518-.157 1.916-.051.73-.12 1.458-.123 2.19-.002.76.087 1.555.309 2.29" fill="#000"/><path d="M49.055 35.265c-.073-.144-.19-.288-.352-.305-.138-.013-.265.07-.37.16-.393.343-.66.787-.768 1.297a11 11 0 0 0-.215 1.61c-.029.512-.16 1.022-.474 1.438-.123.163-.268.309-.384.478-.13.19-.218.405-.305.618l-.213.518c-.024.06-.05.121-.051.186-.002.156.151.208.268.123.144-.104.219-.312.273-.471.043-.128.18-.561.33-.6.193-.05.138.403.129.51a42 42 0 0 1-.173 1.666c-.015.123-.097.374-.025.49.097.155.263.044.319-.082.108-.241.126-.519.166-.778.014-.087.183-.86.137-.885q.079.043.164.073a13 13 0 0 1-.076.485c-.08.457-.166.92-.222 1.381-.01.09-.012.195.057.252.06.05.153.038.214-.009a.34.34 0 0 0 .113-.198c.11-.47.23-.943.3-1.426.02-.132.028-.267.037-.402q.063.003.123.001c.012 0-.23 1.377-.264 1.52a.2.2 0 0 0-.007.097c.039.141.232.063.3-.007.095-.098.101-.258.127-.386q.12-.615.189-1.239l.033-.003q.027-.003.054-.009l-.014.173c-.022.312-.08.642-.058.955.01.167.247.185.289.024.099-.385.099-.8.163-1.194.197-1.19-.034-2.4.128-3.592.118-.831.439-1.722.058-2.47" fill="#EB9D83"/><path d="M46.693 30.737a5.6 5.6 0 0 1-.774-.501 12.6 12.6 0 0 1-1.671-1.667c-1.035-1.225-1.862-2.607-2.655-3.994-.891-1.562-1.79-3.13-2.546-4.766a21 21 0 0 1-1.01-2.583c-.048-.153-.091-.414-.154-.687l-.411.095c-.26.061-.544.117-.787.238.075.333.195.662.274.927.27.905.624 1.78 1.02 2.634.82 1.773 1.826 3.458 2.834 5.129.854 1.417 1.753 2.826 2.848 4.072.537.61 1.123 1.17 1.767 1.664.36.276.89.607 1.318.834-.036-.468.054-.882-.053-1.395" fill="#000"/><path d="M51.128 25.967c-.555-4.3-2.73-8.792-7.582-9.06-.297-.017-.617-.026-.86.144-.218.151-.325.414-.406.666-.483 1.504 2.027 3.024 2.483 4.306.823 2.318 1.804 5.286 1.986 7.727.174 2.352-.534 4.395-.19 6.729.06.405.137.819.353 1.165.661 1.06 2.374.948 3.263.07s1.143-2.204 1.248-3.45c.21-2.494 0-5.002-.208-7.498a21 21 0 0 0-.087-.8" fill="#D7664A"/><path d="M37.647 22.125a.278.278 0 1 1-.555 0 .278.278 0 0 1 .555 0m-.461 1.765a.278.278 0 1 1-.556-.001.278.278 0 0 1 .556 0m-.188 1.877a.278.278 0 1 1-.555 0 .278.278 0 0 1 .555 0m-.188 1.952a.278.278 0 1 1-.555 0 .278.278 0 0 1 .556 0" fill="#0F171E"/><path d="M32.486 24.047c.102-.564.129-1.14.135-1.724.007-.803-.245-1.646-.846-2.177-.331-.292-.787-.48-1.217-.382-.319.072-.584.288-.83.504-.706.624-1.266 1.398-1.957 2.02-.643.58-1.214 1.4-1.484 2.227-.28.859-.193 1.89.427 2.545.498.524 1.259.73 1.981.7a3.73 3.73 0 0 0 1.941-.645c.694-.475 1.214-1.181 1.533-1.96.149-.361.25-.732.317-1.108" fill="#D7664A"/><path d="M32.475 17.235c-.44.448-.817 1.006-.812 1.63.001.15.05.332.195.373a.3.3 0 0 0 .153-.008c.446-.143.199-.634.313-.959.11-.319.422-.524.665-.738.239-.207.105-.646-.244-.517a.6.6 0 0 0-.187.135z" fill="#EB9D83"/><path d="M34.794 20.549h-2.117a.134.134 0 0 1-.135-.136v-4.607c0-.065.053-.117.117-.117h2.154c.064 0 .117.052.117.117v4.606a.14.14 0 0 1-.136.137" fill="#000"/><path d="M34.415 17.09c-.727.162-1.38.348-2.031.871-.405.326-.017.623.256.44a5.6 5.6 0 0 1 1.91-.821c.319-.072.184-.562-.136-.49m.528.494c-.83.21-1.606.576-2.377.945-.295.141-.037.58.256.44.732-.351 1.466-.695 2.256-.894.318-.081.183-.572-.135-.49" fill="#EB9D83"/><path d="M34.909 18.285c-.157-.036-.32.031-.47.076a6.8 6.8 0 0 0-1.587.715c-.278.172-.023.613.256.44a5.7 5.7 0 0 1 1.51-.677c.02-.005.155-.034.17-.052a.24.24 0 0 0 .227-.067l.008-.008c.12-.138.082-.38-.114-.427m-.337.702c-.555.168-1.02.41-1.512.707-.279.169-.024.608.256.439.456-.274.88-.501 1.392-.655.31-.097.177-.587-.136-.491" fill="#EB9D83"/><path d="M33.538 19.658c.05.063.054.152.05.232-.008.104-.068.194-.127.279-.176.252-.386.503-.643.677-.107.073-.27.175-.404.174-.1 0-.158-.052-.261-.008-.081.035-.147.11-.204.174-.2-.09-.387-.243-.551-.386-.06-.052-.543-.474-.507-.544.134-.26.324-.501.445-.764.09-.196.14-.399.248-.594.182-.326.473-.868.882-.945.352-.066.57 1.05 1.072 1.704" fill="#EB9D83"/><path opacity=".54" d="M33.847 16.394a.157.157 0 1 1-.315 0 .157.157 0 0 1 .315 0" fill="#fff"/><path d="M38.56 14.475c.177.237.44.415.733.454.292.04.61-.075.784-.313" stroke="#0F171E" stroke-miterlimit="10"/><path d="M43.347 11.904a2.3 2.3 0 0 0-.057-1.01c-.018-.057-.396-.826-.433-.795.24-.193-.306-.315-.43-.334q.188-.104.367-.224c.015-.025-.023-.05-.051-.054a2 2 0 0 0-.71-.01q.169-.245.291-.516a.64.64 0 0 0-.502.255 7.5 7.5 0 0 0-1.624.003c-.702.08-1.394.399-1.83.955-.393.503-.549 1.146-.694 1.767l2.254.312c.087.012.18.024.26-.013a.5.5 0 0 0 .155-.14c.16-.195.327-.478.534-.612-.057.206-.13.405-.134.626l.513-.365c.015.12.058.237.124.34.014.019.029.04.051.047.14.051.182-.192.315-.096.055.04.033.34.035.405.001.06-.035.773-.089.76.247.06.522.06.757.18.241.12.438.374.41.643.077-.714.389-1.422.488-2.124" fill="#000"/><path d="M41.54 13.797a.687.687 0 1 0 1.372 0 .687.687 0 0 0-1.373 0" fill="#EB9D83"/><path d="M42.11 13.486a.41.41 0 0 1 .34.273.41.41 0 0 1-.109.422" fill="#0F171E"/><path d="M33.722 25.185a7.5 7.5 0 0 0 1.403-2.588" stroke="#0F171E" stroke-miterlimit="10"/><path d="M40.116 46.32a83 83 0 0 1-.505-10.716" stroke="#0F171E" stroke-width=".75" stroke-miterlimit="10"/><path d="M34.064 48.033c-.11.59.51 1.186 1.094 1.056zm7.272-.323c-.006.303.392.452.684.377s.543-.28.84-.338" fill="#0F171E"/><path d="M45.512 22.91c1.493 2.708.982 5.321 1.106 8.263m-14.645-9.891c.519.384.723 1.089.652 1.731-.069.642-.37 1.234-.698 1.791s-.691 1.1-.905 1.709" stroke="#0F171E" stroke-miterlimit="10"/><path d="M60.13 65.432c-.61.123-1.757.063-2.33-.158l.353-13.164c.065-2.456.131-4.916.42-7.356.173-1.456.43-2.925.975-4.294.332-.836.954-2.49 1.845-2.912 2.798-1.323 4.945-1.332 4.769.204-.342 2.961-1.388 4.305-1.958 10.383-.36 3.831-2.557 13.29-2.976 17.115-.006.069-.62.084-1.099.181m10.798.037c-.157.041-1.815.004-1.813.017-.262-.589-.808-4.804-.955-7.126-.187-2.956-.521-5.502-.568-8.465-.042-2.64.024-5.366 1.159-7.779.292-.622.671-1.233 1.251-1.635s1.4-.55 2.026-.215c.868.463 1.017 1.567 1.054 2.51.304 7.568-.713 14.926-1.07 22.451-.003.069-.613.117-1.084.242m4.775-46.458a.9.9 0 0 1 .018.379c-.03.125-.126.242-.253.253a.35.35 0 0 1-.19-.049c-.29-.162-.395-.52-.464-.844-.072-.336-.428-1.664.333-1.649.414.008.49 1.552.556 1.91" fill="#E79D90"/><path d="m67.215 40.407.157-2.847c.108-1.952.213-3.94-.284-5.83-.152-.574-.38-1.166-.846-1.534-.753-.594-1.864-.012-2.628.317a5.6 5.6 0 0 0-2.113 1.573c-1.186 1.424-1.7 3.297-2.24 5.033a66 66 0 0 0-1.921 7.877c-.078.439-.64 4.867-.791 4.852a89 89 0 0 0 10.124.378z" fill="#D7664A"/><path d="M73.997 45.852a44 44 0 0 0-.09-3.031 64 64 0 0 0-.731-6.383c-.231-1.384-.642-2.734-1.433-3.904-.726-1.074-1.889-2.735-3.348-1.97-.765.4-1.153 1.266-1.417 2.088-1.662 5.175-.557 10.8-1.106 16.208l7.969.303a42 42 0 0 0 .156-3.31" fill="#D7664A"/><path d="M64.8 36.583q1.007.308 2.042.504c.45-.47.85-.985 1.192-1.537.48.565.839.948 1.11 1.638.784-.438 1.592-.615 2.375-1.055.37-.207.748-.42 1.044-.724.82-.843.4-1.84-.291-2.601-.94-1.037-2.295-1.671-3.686-1.778-.719-.055-1.402.117-2.116.065a17.4 17.4 0 0 0-2.77.009c-1.294.11-2.574.235-3.416 1.351-.298.395-.29 1.616.015 2.02.12.157.293.262.464.36a19.5 19.5 0 0 0 4.036 1.748" fill="#E6D779"/><path d="M67.533 14.517c.752-.06 1.55-.524 2.014-1.002.364-.377.77-1.064.826-1.59.025-.237-.015-.476-.048-.713-.062-.454-.09-.918-.218-1.359-.127-.44-.368-.87-.758-1.111-.551-.342-1.145-.056-1.696.123-.592.192-1.195.388-1.701.748-.507.362-.912.92-.933 1.542-.007.23.036.46.03.689-.004.16-.034.324.002.48.027.114.085.216.147.315q.297.488.643.945c.213.28.443.555.745.735.283.17.611.223.947.198" fill="#000"/><path d="M61.857 34.554c3.665.219 7.689.972 11.335.546.243-3.02-.89-6.576-1.06-9.515-.031-.546-.223-1.021-.258-1.567-.04-.656.69-1.06.677-1.718-.026-1.27-.137-3.004-.802-4.119-.86-1.44-3.14-2.026-4.783-2.106-1.292-.063-3.802.113-4.739 1.11-.846.902-1.077 2.442-1.097 3.63-.02 1.31-.165 2.48-.353 3.8l-1.397 9.74q1.236.125 2.477.199" fill="#6074A8"/><path d="M65.55 12.704c-.027-.806-.04-1.781.478-2.453.769-.993 2.644-.983 3.48-.057.192.211.32.474.421.741.26.676.372 1.42.237 2.131-.084.45-.271.884-.553 1.244-.13.166-.298.372-.487.476-.063.034-.544.168-.55.126.037.266.06.63.06.901.001.729-.394 1.981-.956 2.202-.742.291-2.092-.547-2.235-1.598-.018-.129-.009-.258 0-.388a42 42 0 0 0 .114-2.51q.007-.404-.009-.816" fill="#E79D90"/><path d="M66.292 12.483a.78.78 0 1 1-1.56 0 .78.78 0 0 1 1.56 0" fill="#E79D90"/><path d="M65.644 12.129a.46.46 0 0 0-.385.309.46.46 0 0 0 .125.478" stroke="#1A2732" stroke-miterlimit="10"/><path d="M69.187 15.58c-.232.086-.491-.005-.712-.118-.343-.175-.666-.421-.839-.765.31.153.655.233 1 .234.129 0 .26-.01.388-.021l.537-.045m-3.458-5.714a1.5 1.5 0 0 1 .216-.273c.445-.412 1.182-.183 1.741-.42.361-.153.643-.499 1.033-.544.256-.03.516.084.707.258.192.174.327.4.442.633.164.327.296.699.2 1.05-.108.397-.5.672-.905.736-.282.046-.569.004-.853.014-.606.022-.992.524-1.574.665-.205.049-.421.075-.607.175-.268.146-.279.39-.34.654-.025.107-.094.527-.277.459-.047-.018-.075-.067-.083-.117-.034-.212.098-.552-.133-.687a.46.46 0 0 0-.223-.053c-.078-.001-.155.008-.233.006-.052-.001-.198-1.488-.124-1.633.148-.299.535-.381.776-.61.095-.089.165-.202.237-.313" fill="#000"/><path d="M69.154 16.401c-.08-.123-.214-.186-.35-.29-.024-.018-.177-.112-.173-.144-.024.144-.052.29-.11.426-.058.139-.156.257-.248.374-.267.345-1.24 1.101-1.072 1.554.107.287.503.601.715.813.08.08.786.618.775.677l.5-2.745c.028-.153.055-.311.032-.464a.44.44 0 0 0-.069-.201" fill="#E6D779"/><path d="M65.44 15.665c-.35.228-.627.49-1.046.618.594 1.122 1.117 2.346 1.811 3.406q.075-.055.14-.123c.247-.244.438-.598.608-.88.088-.147.41-.563.461-.786-.905-.455-1.668-1.265-1.973-2.235" fill="#E6D779"/><path d="M68.405 12.204a.884.884 0 1 1-1.769.001.884.884 0 0 1 1.769-.001Zm2.325 0a.884.884 0 1 1-1.77.001.884.884 0 0 1 1.77-.001Zm-2.325 0h.555m-3.145-.276.838.331" stroke="#592B4B" stroke-miterlimit="10"/><path d="M68.447 24.416a.312.312 0 1 1-.623 0 .312.312 0 0 1 .623 0m-.085 2.294a.312.312 0 1 1-.624.001.312.312 0 0 1 .624 0" fill="#1A2732"/><path d="M66.616 22.577c-.302.184-.58.399-.796.676-.337.43-.495 1.04-.262 1.533.13.278.371.494.642.638.75.397 1.7.247 2.427-.19.89-.533 1.581-1.462 2.128-2.329.486-.77 1.263-1.734 1.749-2.505.027-.042-1.01-1.344-1.225-1.434 0 0-1.043 1.06-1.591 1.48-.88.676-1.559 1.343-2.555 1.847q-.266.133-.517.284m6.248-5.786c-.321.198-.639.411-.865.711-.181.242-.524 1.235.002 1.254.45.018.36-.669.506-.925.177-.306.537-.46.829-.629.431-.252.057-.737-.375-.473z" fill="#E7AEA4"/><path d="M74.791 20.006 72.6 19.59a.136.136 0 0 1-.108-.159l.9-4.755a.117.117 0 0 1 .137-.093l2.227.423a.117.117 0 0 1 .093.137l-.901 4.755a.13.13 0 0 1-.156.108" fill="#000"/><path d="M73.881 20.292c.198.273.37.573.484.891.162.447.297.951.775 1.065.87.218.897-.987.928-1.534.029-.49.051-1.01-.186-1.439-.32-.586-.98-.805-1.56-1.036-.165-.066-.334-.132-.511-.132-.41 0-.725.343-.985.66-.176.216-.365.483-.283.75.063.204.271.33.475.394.204.065.423.087.616.179a.64.64 0 0 1 .247.202" fill="#E79D90"/><path d="M73.976 25.04c-.792.292-2.139.23-2.17-.888-.023-.768.776-1.257 1.267-1.722.509-.479 1.08-1.115 1.255-1.805.097-.38.181.192.523 0q.143-.08.26-.132c.518-.234.95-.348.955.222.006.783-.233 1.69-.403 2.234-.271.868-.792 1.732-1.636 2.071z" fill="#E79D90"/><path d="M74.782 17.136c-.78.024-1.437-.007-2.21.404-.48.255-.137.637.18.502a5.8 5.8 0 0 1 2.126-.47c.341-.013.247-.446-.096-.436m.547.51c-.175-.087-.588.048-.767.077-.627.099-1.243.26-1.856.423-.331.088-.151.59.178.502a25 25 0 0 1 1.237-.303c.369-.076.81-.063 1.152-.22.21-.098.303-.354.056-.479m-.175.728c-.125-.078-.377-.048-.486-.038a7 7 0 0 0-.612.092 7 7 0 0 0-1.161.334c-.432.165-.009.59.324.518.108-.024.208-.077.308-.122q.324-.15.673-.211c.231-.04.468-.044.693-.111.129-.038.262-.107.31-.233.046-.117.016-.189-.05-.23m-.469.562a.3.3 0 0 0-.102.022c-.524.188-1.07.287-1.596.482-.229.085-.242.57.032.592.097.008.192-.037.279-.082q.586-.297 1.175-.593c.126-.063.262-.138.313-.27.013-.034.02-.075.001-.106-.02-.036-.058-.048-.102-.045" fill="#E7AEA4"/><path d="M73.487 19.494c.038.075.027.168.005.25-.027.104-.107.185-.185.262-.304.295-.658.573-1.077.63a1.18 1.18 0 0 1-1.027-.383c-.252-.285-.447-.331-.35-.699.043-.159.304-.579.392-.717.223-.35.96-1.305 1.47-1.305.376 0 .382 1.191.772 1.962" fill="#E7AEA4"/><path opacity=".54" d="M74.784 15.573a.163.163 0 0 1-.192.13.163.163 0 0 1-.13-.191.164.164 0 0 1 .322.062" fill="#fff"/><path d="M59.58 19.148c-1.12 1.501-1.398 3.082-1.432 4.91-.02 1.073-.023 2.171.33 3.185.353 1.013 1.136 1.941 2.183 2.172.403.09.822.072 1.234.038 1.56-.13 3.189-.417 4.625-1.022.857-.36 1.744-.945 2.19-1.767.378-.693.933-1.074.744-1.954a7.5 7.5 0 0 0 1.036-1.238c-.373-.828-.949-1.812-1.322-2.64-1.165.585-2.263 1.028-3.462 1.551-.93.405-1.814.917-2.626 1.526.279-.209.369-1.47.43-1.814a17 17 0 0 0 .236-4.042c-.017-.275-.104-.605-.059-.876.033-.198.313-.497.186-.708-.047-.077-.175-.092-.447.007-1.488.545-2.901 1.403-3.847 2.672" fill="#6074A8"/><path d="M70.346 23.825c-.357.456-.721.927-.881 1.485-.066.229-.096.469-.192.688-.152.343-.453.594-.751.82-1.838 1.386-3.91 2.11-6.127 2.613-.734.167-1.585.258-2.168-.22m8.487-8.137c-.361.137-.654.421-1.016.556-.224.082-.465.105-.699.159-.39.09-.754.268-1.113.445-1.373.675-2.695 1.386-3.95 2.27m1.412-4.807c.257.594.276 1.264.21 1.908s-.214 1.276-.283 1.92" stroke="#1A2732" stroke-miterlimit="10"/><path d="M72.777 22.137c-.15.197-.312.36-.552.372-1.169.06-1.164.213-1.164 1.42-.002 1.672.216 3.329.412 4.987l.039-.003c1.01-.127 1.7-1.058 2.233-1.925.752-1.223 1.586-2.523 2.094-3.87-.802-.424-1.586-1.024-2.353-1.548-.032-.021-.065-.044-.102-.045-.035-.002-.068.017-.098.036-.208.135-.352.373-.51.576" fill="#6074A8"/><path d="M73.205 20.022a2.5 2.5 0 0 0 .564-.678c.05-.09.099-.186.18-.25a.7.7 0 0 1 .24-.107l.983-.294m-.699-.391-.878.218m.664 2.384c.09.162.243.288.42.348m-2.326 7.611.125-6.354" stroke="#1A2732" stroke-miterlimit="10"/><path d="M69.528 23.886c.17.098.36-.121.275-.285-.012-.024-.033-.042-.054-.06a.3.3 0 0 0-.099-.058.186.186 0 0 0-.206.093c-.053.1-.014.255.084.31" fill="#1A2732"/><path d="M66.74 49.034q.283-5.312.665-10.617M59.017 39.6a3.5 3.5 0 0 0 2.984-1.509m9.321-1.708a1.795 1.795 0 0 0 1.865.885" stroke="#1A2732" stroke-miterlimit="10"/><path d="M68.054 13.772a.72.72 0 0 0 .471.32.7.7 0 0 0 .553-.133" fill="#fff"/><path d="M79.921 23.342a.45.45 0 0 0-.364.273.46.46 0 0 0 .063.451" stroke="#1A2732" stroke-miterlimit="10"/><path d="M10.64 38.5c-.064.946.088 1.92.185 2.963.211 2.258.577 4.502.631 6.774.091 3.838.579 7.65.937 11.472 1.23.093 2.543.277 3.769.208.34-1.373.384-8.668.456-10.535.094-2.486.293-5.361.31-7.849.015-2.288-.147-3.412-1.214-5.514-.158-.31-.334-.617-.59-.855-.545-.505-1.393-.598-2.093-.346s-1.262.801-1.663 1.427c-.482.745-.675 1.49-.727 2.256" fill="#EB9D83"/><path d="M19.858 15.374c-.018.037-.05.067-.077.1a.4.4 0 0 0-.042.062c.287.11.592.168.893.142q.005-.105-.01-.21a1.5 1.5 0 0 0-.354-.72c-.09-.106-.198-.208-.332-.237-.137-.028-.302.044-.329.18-.024.125.068.239.149.338s.159.23.102.345m-4.762.573c.024.05.057.106.113.114.058.007.106-.04.144-.086.24-.286.469-.594.6-.946.155-.423.146-1.664-.554-1.11-.553.438-.575 1.446-.303 2.028" fill="#272425"/><path d="M12.01 20.66a2.4 2.4 0 0 0-.677.427c-.838.82-1.185 2.007-1.482 3.143-.39 1.485-.992 3.795-.09 5.205.271.424.766.721 1.268.68.434-.038.821-.319 1.078-.671.256-.354.398-.776.517-1.196.31-1.11.325-2.263.572-3.364.274-1.218.575-2.415.613-3.67.03-.994-1.016-.9-1.8-.554m5.229 17.92c-.036 3.498.316 5.98.31 9.479-.003 1.869-.007 10.408.53 11.865.321.006 3.753-.1 3.768-.216.359-3.822.846-7.635.937-11.472.062-2.592.528-5.148.712-7.73.082-1.16.249-1.61-.805-2.223-1.115-.65-2.348-1.135-3.583-1.5-.215-.063-.448-.121-.654-.037-.373.151-.436.645-.44 1.047-.002.238-.772.547-.775.787" fill="#EB9D83"/><path d="M15.294 11.873c-.335.754-.548 1.441-.303 2.272.348 1.175 1.742 1.868 2.932 1.58 1.122-.273 2.167-1.494 2.423-2.613.186-.812-.29-2.334-1.238-2.517-1.017-.197-2.744-.152-3.475.721a2.2 2.2 0 0 0-.339.557" fill="#272425"/><path d="M22.44 29.723c-1.831-3.666-4.49-4.424-7.68-2.448-3.386 2.098-4.435 7.393-4.827 11.548q-.06.654-.103 1.264c-.03.42.202.818.585.993l.019.01c.614.28.973-.077 1.162-.635q.465-1.379.73-2.812c-.068.947-.023 1.922-.143 2.86-.076.602-.088 1.255.622 1.456 3.675 1.04 7.706.837 11.236-.626.39-.163.637-.555.619-.978-.158-3.546-.763-7.718-2.22-10.632" fill="#6074A8"/><path d="M22.63 29.406c.087.036.162.1.22.203.404.702-.77.92-1.212.892-.013.768-.055 1.613-.578 2.175-.418.45-1.058.615-1.668.684-.87.1-1.776.04-2.57-.328-.786-.365-1.65-1.167-1.534-2.094-.518-.113-1.074-.023-1.608-.171-.162-.045-1.67-.513-1.64-.663.054-.267.158-.524.303-.753 1.001.09 1.91.372 2.914.414 1.278.052 2.558.027 3.835-.045.83-.047 1.659-.116 2.486-.198.316-.035.75-.243 1.052-.116" fill="#E6D779"/><path d="M13.385 27.708a7 7 0 0 1-.192 1.04c.812.015 1.623.045 2.434.073 2.389.084 4.815.13 7.156-.283a5.3 5.3 0 0 1-.174-.903c-.031-.354-.007-.711.015-1.067.144-2.194.574-5.122-.302-7.218-.918-2.193-3.874-2.265-5.814-1.8-.82.197-1.615.605-2.122 1.278-.399.53-.592 1.185-.733 1.833a14.6 14.6 0 0 0-.331 3.212c.014 1.28.195 2.562.063 3.835" fill="#6074A8"/><path d="M16.435 30.227c1.344.168 2.775.324 3.997-.264" stroke="#000" stroke-width=".5" stroke-miterlimit="10"/><path d="M24.28 27.656c-.268 1.393-.437 3.036-2.023 3.241-.81.105-1.651-.39-1.774-1.323-.051-.393.012-.792.075-1.183.293-1.805.587-3.617 1.086-5.367.17-.593.384-1.21.838-1.586 1.524-1.258 2.205 1.622 2.208 2.738.003 1.168-.19 2.338-.41 3.48" fill="#EB9D83"/><path d="M23.661 18.206c-.484-.365-1.109-.536-1.714-.653-.925-.178-1.831-.284-2.747-.138-.178.029 1.086 2.876 1.196 3.163.433 1.14-.424 3.073-.01 4.246 1.119.07 3.238-.101 4.338-.312.11-1.45.205-2.918-.054-4.347-.112-.62-.303-1.253-.733-1.712a2 2 0 0 0-.276-.247" fill="#6074A8"/><path d="M21.512 25.667a17 17 0 0 1-.386-1.382c-.135-.613-.13-1.213-.086-1.833a.7.7 0 0 0-.007-.217c-.029-.116-.114-.212-.19-.31-.365-.482-.506-1.073-.594-1.65a11.3 11.3 0 0 1-.058-3.011 5 5 0 0 1-.374-.032c.032.31.005.627-.04.935-.057.385-.149.765-.246 1.143-.1.391-.198.783-.315 1.17-.16.526-.349 1.045-.529 1.567-.165 1.254-.27 2.51-.415 3.764-.105.9-.503 2.04.141 2.836.438.542 1.208.662 1.903.659a8.6 8.6 0 0 0 1.67-.174c.127-.026.273-.07.32-.192a.4.4 0 0 0 .005-.195c-.153-1.145-.454-2.001-.799-3.078" fill="#D7664A"/><path d="M13.51 17.901a5.1 5.1 0 0 0-1.615 1.208c-1.12 1.254-1.672 2.902-2.19 4.503a22.2 22.2 0 0 0 4.31 1.512l.842-3.023c.22-.789.47-1.743.836-2.475.153-.468 2.227-1.02 2.312-1.503.125-.696-2.282-.642-2.936-.616a4.1 4.1 0 0 0-1.558.394" fill="#6074A8"/><path d="M18.354 11.666c-.837-.183-1.755.2-2.264.89-.51.69-.616 1.642-.334 2.453.151.437.47.683.556 1.12.064.335.244 1.043.02 1.399.145.16.392.22.594.253.922.15 1.755-.02 2.632-.307-.18-.068-.376-.15-.457-.326-.04-.088-.045-.189-.05-.286q-.014-.41-.033-.82c-.003-.071-.006-.142.015-.21.026-.088.089-.16.146-.23.595-.74.944-1.85.578-2.77a1.94 1.94 0 0 0-1.403-1.166" fill="#E7AEA4"/><path d="M16.982 25.236c-.026-.613-.111-1.203-.104-1.845.021-1.146-.007-2.311-.163-3.448-.042-.31-.633-2.574-.26-2.628q-.316.046-.605.108.083.861.024 1.725c-.09 1.362-.408 2.754-1.145 3.955-.33.537-.752 1.101-1.317 1.457l-.033.02c-.264.632-.558 1.174-.646 1.8-.087.63-.117 1.223-.333 1.847-.036.104-.073.213-.042.318a.4.4 0 0 0 .147.19c.399.322.956.332 1.469.33.69-.007 1.428-.028 1.983-.437.717-.53.882-1.517.99-2.403a6 6 0 0 0 .035-.989" fill="#D7664A"/><path d="M15.961 14.552c.361-.171.522-.846.133-1.083a.74.74 0 0 0-.532-.113c-.35.072-.587.485-.473.824.112.339.55.525.872.372m4.432-.834c.16.346-.072.819-.448.886-.615.111-.907-.708-.47-1.089a.585.585 0 0 1 .918.203" fill="#E7AEA4"/><path d="m16.172 15.759-.061.105c.1.277.127.594.093.895.748.183 1.335-.03 1.942-.369-.76.152-1.596-.019-1.974-.631" fill="#222221"/><path d="M17.611 10.611c-1.278.102-1.716.99-2.076 2.066a1 1 0 0 0-.069.306c-.005.233.138.489.297.646.285-.194.481-.64.54-.985.016-.101.04-.224.136-.255a.3.3 0 0 1 .144.006c.448.096.913.072 1.37.049.385-.02.775-.04 1.14-.159.04.329.12.729.28 1.02.037.069.527.52.525.434-.025-.763.137-2.052-.444-2.668-.169-.182-.606-.289-.84-.355a2.9 2.9 0 0 0-.947-.11z" fill="#272425"/><path d="M19.894 13.739a.266.266 0 0 1 .221.253.266.266 0 0 1-.22.255m-4.279-.532c-.124.006-.232.118-.245.243a.34.34 0 0 0 .164.315" fill="#222221"/><path d="M18.03 21.017c.605.616 1.077 1.363 1 2.25-.01.127-.032.268-.133.348-.148.12-.371.037-.527-.072-.197-.138-.381-.354-.34-.59.013-.08.052-.154.083-.23.267-.662-.13-1.013-.589-1.412-.235-.204-.103-.636.24-.509.072.027.129.08.184.134zm-7.346 6.349a2.7 2.7 0 0 0-.616.762c-.235.455-.274 1.044.026 1.46.17.234.428.39.703.475.76.236 1.61-.069 2.204-.598.727-.648 1.202-1.626 1.554-2.519.314-.795.862-1.82 1.174-2.614.018-.044-1.166-1.062-1.38-1.107 0 0-.777 1.16-1.21 1.644-.692.775-1.202 1.51-2.034 2.15a6 6 0 0 0-.42.347m4.747-6.427c-.26.238-.517.49-.673.807-.126.253-.267 1.23.22 1.156.42-.063.215-.68.306-.942.11-.313.415-.516.655-.724.354-.308-.076-.689-.427-.37z" fill="#EB9D83"/><path d="M17.763 23.565h-2.076a.134.134 0 0 1-.135-.135v-4.525c0-.065.053-.117.117-.117h2.113c.064 0 .117.052.117.117v4.525a.14.14 0 0 1-.136.135" fill="#000"/><path d="M22.94 27.6c.216.338.389.698.49 1.085.116.44.15.934-.074 1.333-.186.333-.525.552-.877.7-.3.124-.638.205-.946.103-.187-.063-.347-.19-.493-.324-.968-.902-1.794-2.405-2.203-3.65-.276-.841-.78-1.615-1.103-2.44-.018-.044.856-1.265 1.069-1.31 0 0 1.152 1.244 1.585 1.728.793.888 1.886 1.733 2.553 2.775" fill="#EB9D83"/><path d="M16.148 20.972c.714.159 1.33.244 1.971.759.399.32.015.612-.252.432a5.5 5.5 0 0 0-1.877-.807c-.314-.07-.155-.453.158-.384" fill="#B57B71"/><path d="M15.82 21.402c.817.207 1.517.498 2.275.86.29.14-.117.598-.406.459-.72-.345-1.442-.683-2.216-.88-.314-.077.035-.518.347-.439" fill="#B57B71"/><path d="M15.635 22.049c.155-.036.317.031.464.075q.278.082.546.19.529.213 1.014.512c.272.168.022.601-.252.432a6 6 0 0 0-.84-.44 6 6 0 0 0-.644-.226c-.018-.006-.151-.033-.166-.051a.23.23 0 0 1-.224-.068q-.003-.005-.007-.007c-.12-.132-.082-.372.11-.417m.333.69c.545.165 1.002.402 1.488.694.274.167.024.599-.252.432-.448-.27-.866-.492-1.368-.645-.309-.093-.177-.576.132-.481" fill="#B57B71"/><path d="m16.923 23.301-.048.029c-.115.064-.246.108-.334.205.009.04.058.053.097.06.34.066.383.264.57.503.193.244.435.47.736.571a1.11 1.11 0 0 0 1.013-.172c.282-.22.469-.227.444-.584-.011-.153-.416-.65-.473-.792-.145-.361-.42-1.31-.888-1.398-.267-.05-.445.513-.523.683-.146.32-.287.696-.594.895m.337-2.381c-.713.16-1.326.245-1.966.758-.398.32-.015.612.252.432a5.5 5.5 0 0 1 1.878-.807c.313-.069.15-.451-.163-.382" fill="#EB9D83"/><path d="M17.854 21.296c-.177-.05-.533.146-.694.204-.56.2-1.1.457-1.636.713-.29.14-.036.57.252.432.36-.172.719-.343 1.086-.494.327-.136.734-.2 1.024-.405.177-.127.217-.378-.032-.45m-.036.702c-.129-.05-.355.02-.454.05a6 6 0 0 0-.547.191q-.528.213-1.013.512c-.369.228.094.546.39.42.096-.04.178-.107.263-.167a2.5 2.5 0 0 1 .583-.312c.206-.076.425-.123.62-.223.11-.057.223-.144.245-.269.021-.117-.018-.177-.087-.202m-.332.598a.4.4 0 0 0-.09.038c-.45.265-.937.451-1.388.723-.197.118-.123.568.133.54a.5.5 0 0 0 .243-.125l.979-.751c.105-.081.217-.174.24-.303.007-.035.005-.072-.017-.1-.024-.028-.062-.03-.1-.022" fill="#EB9D83"/><path d="M16.478 23.322c.048.063.054.15.048.23a.57.57 0 0 1-.124.273c-.23.325-.507.643-.883.77a1.11 1.11 0 0 1-1.013-.173c-.282-.22-.47-.227-.444-.584.01-.153.179-.586.236-.729.145-.361.658-1.37 1.127-1.46.346-.067.56 1.03 1.053 1.673" fill="#EB9D83"/><path opacity=".54" d="M16.833 19.48a.154.154 0 1 1-.308.001.154.154 0 0 1 .308 0" fill="#fff"/><path d="M12.968 24.93c-.816.8-1.86 1.866-2.215 2.952M21.69 26.07c.566.482 1.577 1.554 1.5 2.228" stroke="#000" stroke-miterlimit="10"/><path d="M15.76 15.743a1.5 1.5 0 0 0-.132-.793c-.055-.127-.129-.256-.251-.322-.122-.068-.302-.045-.366.078-.058.113-.003.248.045.366s.084.267-.002.36c-.028.031-.066.051-.101.073-.168.114-.237.318-.243.513-.008.229.097.381.16.582-.274.16-.505.351-.593.672a.91.91 0 0 0 .218.87c-.039-.038-.232.131-.256.158a.6.6 0 0 0-.148.302c-.045.267.02.453.17.674-.112.023-.196.116-.256.213-.087.14-.145.303-.16.468-.014.161.015.278-.054.435q.487.193.976.384c-.008-.211.027-.42.034-.631s-.013-.43-.123-.612c-.007-.014-.016-.027-.012-.042q.006-.015.02-.024c.166-.14.175-.268.235-.473.045-.152.145-.215.217-.367.1-.207.074-.394.002-.598-.026-.073-.066-.148-.138-.176a.89.89 0 0 0 .482-.65c.023-.128.057-.247.037-.377-.007-.04-.137-.442-.179-.416.236-.14.38-.399.418-.668" fill="#272425"/><path d="M14.479 19.152a1.2 1.2 0 0 0-.244-.045.7.7 0 0 0-.152.012q-.021.148-.036.294c.04.03.09.027.135.023.143-.012.41.16.586.146l.023-.13.018-.122.009-.065.003-.026c-.107-.056-.243-.062-.342-.087" fill="#D49C24"/><path d="M17.001 15.167a1.77 1.77 0 0 0 1.535-.171" stroke="#000" stroke-miterlimit="10"/><path d="M23.216 24.28c-.347-1.127-.799-2.216-1.278-3.295l-.271-.166q-.155.044-.312.07c-.39.066-.697-.13-.851.015.166 1.341.352 2.682.476 4.028.685.067 1.388-.098 2.05-.31.077-.026.162-.058.197-.131.031-.066.01-.143-.01-.212" fill="#6074A8"/><path d="M20.391 17.606c.254.092.32-.266.364-.43a.87.87 0 0 0-.338-.949c.182-.2.247-.49.206-.758a1.3 1.3 0 0 0-.09-.303 3 3 0 0 1-.663.179l-.01.031c-.019.038-.05.068-.077.101-.254.312-.051.857.255 1.075-.224.206-.333.497-.353.808-.024.366.11.697.309.991-.35.5-.187.8.144 1.212-.125.201-.238.395-.283.633-.038.196-.033.402-.105.588a4 4 0 0 0 1.083.081c-.091-.321-.02-.664-.06-.994a1.5 1.5 0 0 0-.385-.837c.159-.22.426-.333.47-.618.05-.329-.158-.697-.467-.81" fill="#272425"/><path d="m20.736 19.547-.01-.044c.005.02-.005-.027-.007-.03l-.027-.1a1 1 0 0 0-.039-.107h-.007c-.06.018-.117.045-.178.062a3 3 0 0 1-.28.064l-.01.002-.007.001-.075.01-.057.01.001.004c.008.092-.001.18-.017.269l.067.018a1.1 1.1 0 0 0 .665-.069z" fill="#D49C24"/><path d="M16.456 30.203a1.2 1.2 0 0 1-.16.41c-.052.08-.112.158-.133.251-.019.093.018.209.11.236.091.027.184-.047.235-.128.077-.123.13-.328.137-.474.003-.087-.053-.189-.1-.279a.4.4 0 0 1-.09-.016m-4.729 16.924c.23.464.853.683 1.32.462zm8.444.545c.169.279.575.327.87.193.297-.134.508-.4.707-.657" fill="#000"/></g><defs><clipPath id="a"><path fill="#fff" d="M110 0H0v75h110z"/></clipPath></defs></svg>