<svg width="50" height="52.577" viewBox="0 0 50 52.577" fill="none" xmlns="http://www.w3.org/2000/svg"><path d="M25.009 49.884c13.77 0 24.933-11.163 24.933-24.933S38.779.019 25.009.019.077 11.181.077 24.951 11.24 49.884 25.01 49.884" fill="#F9EDB5"/><path d="M34.433 12.106a7 7 0 0 0-.058-1.102c-.556-4.137-4.74-7.176-9.346-6.787-2.53.213-4.66 1.416-5.975 3.142-3.71-.068-6.432.864-6.995 2.692-.922 2.993 4.289 7.253 11.638 9.516s14.053 1.672 14.975-1.321c.561-1.823-1.152-4.116-4.238-6.141" fill="#CDAB5D"/><path d="M33.174 11.514a.2.2 0 0 1-.087-.023c-1.79-1.017-3.902-1.913-6.106-2.592-2.366-.728-4.766-1.186-6.94-1.323a.175.175 0 0 1-.164-.186c.006-.096.082-.174.186-.164 2.202.139 4.63.602 7.022 1.338 2.228.686 4.364 1.593 6.176 2.622a.175.175 0 0 1-.087.328" fill="#3A222B"/><path d="m42.167 39.498-1.412-6.668c-.289-1.365-1.074-2.606-2.234-3.533-.76-.606-2.411-1.059-3.385-1.328l-4.792-1.32h-8.67l-4.792 1.32a7.3 7.3 0 0 0-2.631 1.328c-1.16.926-1.945 2.168-2.235 3.533l-1.412 6.668h5.119v12.003H38.63V39.498z" fill="#55B798"/><path d="M27.199 45.654H16.996a.6.6 0 0 1-.465-.222L7.923 34.827a.322.322 0 0 1 .221-.523l10.064-.909a1.04 1.04 0 0 1 .927.415L27.5 45.056a.375.375 0 0 1-.301.598" fill="#3A222B"/><path d="M9.593 35.175a.261.261 0 1 1-.523 0 .261.261 0 0 1 .523 0" fill="#fff"/><path d="M13.155 43.347a.48.48 0 0 0 .077.431l2.491 3.228v-2.569l-2.239-2.759c-.021.385-.107.925-.329 1.669" fill="#F0A76E"/><path d="M7.885 38.01c.099-.149.859-1.087 1.075-1.352a.5.5 0 0 1 .137-.115l2.155-1.2a.474.474 0 0 1 .5.805l-1.471 1.013a.5.5 0 0 0-.122.123l-.676.987 3.945-1.854a.474.474 0 0 1 .603.177l.011.018a.474.474 0 0 1-.158.66l-3.328 1.986 4.281-1.875a.474.474 0 0 1 .603.201l.007.013a.475.475 0 0 1-.15.629l-1.201.8 1.497-.549a.34.34 0 0 1 .31.599l-2.243 1.55a.48.48 0 0 0-.198.485c.056.336.06 1.01-.307 2.236a.48.48 0 0 0 .077.431l2.703 3.503c.246.319.529 1.182.722 2.045.284 1.267-.255 2.745-1.485 3.162-.684.232-1.71-.132-1.71-.132-.892-.227-1.886-1.592-2.166-2.469 0 0-.61-4.848-.735-6.46a.47.47 0 0 0-.095-.348l-2.142-2.784a.5.5 0 0 1-.085-.179c-.097-.409-.454-1.957-.353-2.108" fill="#F0A76E"/><path d="M13.155 43.347a.48.48 0 0 0 .077.431l2.491 3.228v-.703L13.546 43.7c-.139-.16-.087-.438-.019-.639a6 6 0 0 0 .243-1.03l-.286-.352c-.021.385-.107.925-.329 1.669" fill="#3A222B"/><path d="M31.831 16.767a.8.8 0 0 0-.184-.009c.089-.887.085-1.473.085-1.473 0-.359-.042-.708-.11-1.049-1.649-1.102-5.078-2.914-9.366-2.521-1.19.109-2.005.193-2.586.315a5.7 5.7 0 0 0-1.014 3.25s-.02.599.048 1.502c-.59.159-.93 1.022-.765 1.978.168.972.796 1.678 1.415 1.603.546 1.764 1.515 3.515 3.229 4.38a10.6 10.6 0 0 1-.909 1.907l4.335 7.277 4.335-7.277s-1.04-1.65-1.2-3.12c.842-.922 1.41-2.1 1.793-3.276a.8.8 0 0 0 .274.105c.631.109 1.282-.607 1.453-1.598s-.201-1.884-.833-1.993" fill="#F0A76E"/><path d="M22.765 17.178c0 .369-.234.669-.523.669s-.523-.299-.523-.669.234-.669.523-.669.523.299.523.669m5.16 0c0 .369-.234.669-.523.669s-.523-.299-.523-.669.234-.669.523-.669.523.299.523.669" fill="#3A222B"/><path d="M27.237 20.921s-.776 1.804-2.966 1.627c-1.441-.116-1.994-1.627-1.994-1.627z" fill="#fff"/><path d="M31.287 19.158a.175.175 0 0 1-.155-.255l.696-1.346a.175.175 0 0 1 .311.161l-.381.737.307-.207a.175.175 0 1 1 .196.29l-.876.592a.17.17 0 0 1-.098.03m-6.648.369-.02-.001q-.581-.067-.718-.402c-.137-.336.144-.694.177-.735a.175.175 0 0 1 .272.221c-.061.075-.171.268-.124.382.038.092.192.158.433.185a.175.175 0 0 1 .154.193.175.175 0 0 1-.174.156m-3.913-3.608a.175.175 0 0 1-.099-.319c.048-.033 1.186-.798 2.263-.122a.175.175 0 1 1-.186.296c-.885-.555-1.869.107-1.879.114a.2.2 0 0 1-.099.031m7.707.053a.18.18 0 0 1-.113-.041c-.037-.031-.924-.768-1.857-.31a.175.175 0 1 1-.154-.314c1.142-.561 2.194.32 2.238.357a.175.175 0 0 1-.114.308" fill="#3A222B"/><path d="M41.635 39.498h-6.118v3.738l-7.574-2.595-.669-.956-1.345-2.103-.056-.101a.534.534 0 0 0-.699-.223l-.798.411a.5.5 0 0 0-.103-.146l-.874-.822a.5.5 0 0 0-.495-.109l-.311.104a.5.5 0 0 0-.186.112l-.939.899a.65.65 0 0 0 .862.973l.266-.218 3.256 4.377.719.221 10.069 7.753a3.3 3.3 0 0 0 2.509.652l.226-.034a3.31 3.31 0 0 0 2.658-2.24 3.3 3.3 0 0 0 .134-.582h.001v-.004c.058-.426-.532-9.107-.532-9.107" fill="#F0A76E"/><path d="M22.957 38.619a.9.9 0 0 0 .136.408.89.89 0 0 0 1.071.342l.982-.427s1.126 1.235 1.239 1.235l-1.11-1.673-1.251.543a.534.534 0 0 1-.638-.21.53.53 0 0 1 .075-.667.49.49 0 0 0-.561.042l-.306.251.209.281zm12.561 4.617 4.299 1.473-4.299-2.344z" fill="#3A222B"/><path d="m20.564 26.956-2.49 5.732 4.203-1.476 3.731 2.714-4.335-7.277zm10.889 0 2.49 5.732-4.203-1.476-3.731 2.714 4.335-7.277z" fill="#2F7346"/><path d="M18.009 13.554c-.167.803-.196 2.013.073 3.837.141-.305.354-.528.623-.601-.069-.907-.049-1.51-.049-1.51 0-1.199.368-2.312 1.011-3.245l-.012-.002c-.522.112-.854.256-1.094.481-.324.305-.478.744-.55 1.039m13.613.685q.106.51.107 1.047s.003.59-.086 1.479a.7.7 0 0 1 .185.003c.274.047.495.248.648.534.209-.89.252-1.639.202-2.276-.05-.044-.42-.361-1.057-.787m-9.04 10.506a10.4 10.4 0 0 1-.707 1.559s2.22 1.804 5.307-1.393a5.7 5.7 0 0 1-2.121.39c-.964 0-1.783-.205-2.479-.557" fill="#3A222B"/></svg>