<svg width="50" height="51.804" viewBox="0 0 50 51.804" fill="none" xmlns="http://www.w3.org/2000/svg"><path d="M24.952 49.866c13.77 0 24.933-11.163 24.933-24.933S38.722 0 24.952 0 .019 11.163.019 24.933s11.163 24.933 24.933 24.933" fill="#AC7600"/><path d="m9.14 38.989-4.221.394a.65.65 0 0 1-.678-.447L1.364 30.01a.65.65 0 0 1 .558-.846l4.221-.394a.65.65 0 0 1 .678.447l2.877 8.926a.65.65 0 0 1-.558.846" fill="#3A222B"/><path d="M2.521 29.989a.264.264 0 1 1-.527 0 .264.264 0 0 1 .527 0" fill="#fff"/><path d="m17.36 41.305-5.111-2.517L9.3 43.127c-1.739-2.695-2.474-4.339-2.474-4.339l.512-2.639a1.073 1.073 0 0 0-.911-1.268l-2.329-.641 2.284-1.592a.735.735 0 0 0 .267-.864.734.734 0 0 0-1.099-.348l-2.916 2.097a.9.9 0 0 0-.376.733v1.18C2.785 38.958 4.69 39.9 4.69 39.9s.931 3.672 1.2 5.794c.235 1.858 1.818 5.444 3.102 5.911.763.278 2.192-.214 2.88-1.382z" fill="#F0A76E"/><path d="m15.935 43.76-.313 7.89h19.694l-.128-5.078.453-6.789 2.256 2.791a.31.31 0 0 0 .404.068l7.219-4.503a.31.31 0 0 0 .091-.437l-5.197-7.583a6.7 6.7 0 0 0-5.525-2.911h-5.945l-7.796.35-2.159.561a8.4 8.4 0 0 0-4.715 3.957l-3.425 6.3a.196.196 0 0 0 .082.268l5.172 2.665a46 46 0 0 0-.169 2.451" fill="#F9EDB5"/><path d="M36.404 27.386a7 7 0 0 0-1.085-.163l-.078-.005a7 7 0 0 0-.351-.01h-1.575c-2.224 0-2.341 8.893-2.341 8.893l-12.057-.495s0-1.253.534-3.549c.48-2.065 1.699-4.499 1.699-4.499l-1.132.294a67 67 0 0 0-.825 1.428c-1.063 1.917-2.738 5.924-3.087 12.029-.016.274-.042.568-.073.856a41 41 0 0 0-.097 1.595l-.082 2.057v.001l-.05 1.251-.078 1.966-.063 1.593-.004.093-.037.928h19.694l-.128-5.078.453-6.789s-1.058-1.229-1.097-2.386c-.064-1.903-.591-9.381 1.86-10.011" fill="#2F7346"/><path d="M39.482 51.65h6.297l1.815-1.905a3.54 3.54 0 0 0 .689-3.836L44.7 38.65l-5.148 3.211 3.547 4.639z" fill="#F0A76E"/><path d="M30.995 11.179a7 7 0 0 0-.246-1.083c-1.259-4.007-5.929-6.303-10.43-5.129-2.472.645-4.378 2.202-5.386 4.139-3.69.568-6.23 1.958-6.476 3.868-.401 3.125 5.495 6.457 13.169 7.443s14.221-.749 14.622-3.874c.245-1.903-1.847-3.884-5.254-5.364" fill="#CDAB5D"/><path d="m28.705 23.865-.046-2.506c.139-.49.24-.991.312-1.485a.8.8 0 0 0 .29.057c.647 0 1.171-.824 1.171-1.84s-.524-1.84-1.171-1.84q-.094 0-.185.023c-.064-.898-.169-1.48-.169-1.48a5.4 5.4 0 0 0-.29-1.025c-1.83-.813-5.553-2.027-9.752-.899-1.166.313-1.962.536-2.519.758a5.74 5.74 0 0 0-.451 3.408s1.177 8.497 6.596 8.944c.006.529-.029.977-.172 1.229-.014.024-1.171.35-1.171.35s-.84 5.797 4.412 5.797 4.316-6.147 4.316-6.147-1.244-1.33-1.172-3.343" fill="#F0A76E"/><path d="M29.152 18.844a.177.177 0 0 1-.199-.227l.461-1.46a.177.177 0 0 1 .337.106l-.253.799.269-.259a.177.177 0 1 1 .245.255l-.769.739a.2.2 0 0 1-.092.047m-9.714.59c.064.368-.118.706-.406.756s-.572-.208-.636-.576c-.063-.368.118-.706.406-.755s.572.208.636.576m4.842-1.102c.064.368-.118.706-.406.756s-.572-.208-.636-.576.118-.706.406-.756.572.208.636.576m-2.515 2.487-.018-.01q-.5-.315-.478-.68c.022-.365.435-.569.482-.591a.176.176 0 0 1 .234.084.177.177 0 0 1-.084.235c-.088.042-.273.169-.28.293-.006.101.106.228.313.359a.18.18 0 0 1 .056.244.18.18 0 0 1-.226.065m-4.565-2.606a.177.177 0 0 1-.154-.301c.042-.041 1.044-.998 2.231-.51a.177.177 0 1 1-.134.327c-.975-.4-1.842.428-1.85.436a.2.2 0 0 1-.093.048m7.417-1.834a.18.18 0 0 1-.122-.001c-.046-.018-1.139-.418-1.872.334a.177.177 0 0 1-.253-.247c.896-.919 2.195-.439 2.25-.418a.177.177 0 0 1-.004.331m-2.399 6.915c-.897 0-1.581-.523-1.59-.531a.171.171 0 0 1 .21-.269c.05.038 1.229.935 2.454.128 1.219-.803 1.113-1.545 1.108-1.576a.17.17 0 0 1 .138-.197.17.17 0 0 1 .197.135c.008.04.169.985-1.256 1.923a2.25 2.25 0 0 1-1.261.387m-7.261-7.864c-.028.828.387 2.371 1.248 3.1-.224-.891-.308-1.494-.308-1.494a5.74 5.74 0 0 1 .448-3.402h-.013c-.5.201-.806.401-1.006.667-.27.359-.348.823-.369 1.128m14.69-4.621a.2.2 0 0 1-.09-.008c-1.949-.702-4.196-1.229-6.498-1.525-2.471-.317-4.928-.36-7.108-.124a.177.177 0 0 1-.194-.156.17.17 0 0 1 .156-.195c2.207-.239 4.694-.196 7.191.125 2.327.299 4.6.832 6.573 1.543a.176.176 0 0 1-.03.34m-5.653 15.097a6 6 0 0 1-1.502.068c.006.531-.026.984-.17 1.236-.004.007 4.118.503 5.435-3.775l-.001-.006c-.775 1.217-1.959 2.166-3.761 2.477m5.815-11.533c-.057-.035-.48-.287-1.187-.602l.003.009q-.004-.005-.006-.011c-1.381-.614-3.841-1.454-6.77-1.346.041.118 1.308 3.584 7.229 3.857a.8.8 0 0 1 .185-.029c.281 0 .535.161.736.42.055-.922-.031-1.674-.19-2.299" fill="#3A222B"/></svg>