<svg width="68" height="53" viewBox="0 0 68 53" fill="none" xmlns="http://www.w3.org/2000/svg"><path d="M43.253 17.995c-2.99-.429-5.822-1.611-8.268-3.405-3.652-2.677-11.294-7.235-18.583-4.966-10.055 3.132-10.1 12.19-7.481 17.11 2.62 4.92 21.192 19.328 45.27 17.036 21.547-2.052 25.746-25.535 14.254-29.786-9.967-3.683-13.367 5.707-25.192 4.011M14.16 7.943c.466.43.499 1.158.076 1.63a1.13 1.13 0 0 1-1.61.077 1.164 1.164 0 0 1-.076-1.63 1.13 1.13 0 0 1 1.61-.077" fill="#F6EBD3"/><path d="M11.515 10.09a.7.7 0 0 1 .045.984.68.68 0 0 1-.972.046.7.7 0 0 1-.045-.983.68.68 0 0 1 .972-.047m37.567 5.806c.343.165.489.58.325.928a.683.683 0 0 1-.916.329.7.7 0 0 1-.326-.927.683.683 0 0 1 .917-.33m20.619 24.152c.143.6-.221 1.203-.813 1.347a1.103 1.103 0 0 1-1.332-.823c-.142-.6.222-1.203.814-1.347a1.103 1.103 0 0 1 1.331.823" fill="#F6EBD3"/><path d="M77.229 6.852h-11.07v17.276h11.07z" fill="#DBBA8F"/><path d="M76.646 7.482h-9.904V23.5h9.904z" fill="#FFE4CA"/><path opacity=".5" d="m73.354 7.482-6.612 7.142v-1.837l4.911-5.305zm3.292.323v2.479l-9.904 10.7v-2.48zm.001 5.839v1.281L68.708 23.5h-1.185z" fill="#fff"/><path d="M76.646 14.697h-9.904v.754h9.904z" fill="#DBBA8F"/><path d="M77.229 24.13h-11.07v.686h11.07z" fill="#E8D3B3"/><path d="M66.719 6.852h-11.07v17.276h11.07z" fill="#DBBA8F"/><path d="M66.136 7.482h-9.904V23.5h9.904z" fill="#FFE4CA"/><path opacity=".5" d="m62.843 7.482-6.611 7.142v-1.837l4.911-5.305zm3.293.323v2.479l-9.904 10.7v-2.48zm0 11.295v1.321l-2.85 3.08h-1.223zm0-5.456v1.281L58.197 23.5h-1.185z" fill="#fff"/><path d="M66.136 14.697h-9.904v.754h9.904z" fill="#DBBA8F"/><path d="M66.719 24.13h-11.07v.686h11.07zm-39.785-7.165H9.957l-.372-1h17.773z" fill="#E8D3B3"/><path d="M27.358 14.778H9.585v1.188h17.773z" fill="#DBBA8F"/><path d="m11.396 15.966.475 1.008h1.12l.319-1.008zm14.151 0-.476 1.008h-1.12l-.318-1.008z" fill="#C59F79"/><path d="M22.33 11.632a.06.06 0 0 1-.062-.062V7.49c0-.034.028-.062.062-.062.035 0 .062.028.062.062v4.08a.064.064 0 0 1-.062.062" fill="#00431F"/><path d="m24.051 11.479-.065.244-.012.047-.06.22-.011.048-.585 2.194-.012.047-.059.22-.012.047-.077.29a6 6 0 0 1-1.652 0l-.078-.29-.012-.047-.059-.22-.012-.047-.584-2.194-.012-.047-.059-.221-.012-.047-.066-.244z" fill="#F4AD4B"/><path d="m23.987 11.723-.013.047h-3.286l-.014-.047zm-.073.267-.012.047h-3.145l-.012-.046zm-.597 2.242-.013.046h-1.949l-.013-.046zm-.072.268-.012.046h-1.807l-.012-.047z" fill="#D57635"/><path d="M22.55 8.38a.18.18 0 0 1-.187-.07.17.17 0 0 1-.034-.105q0-.065.041-.115c.236-.29 1.43-1.687 1.99-1.102.677.706-1.157 1.233-1.81 1.393" fill="#006837"/><path d="m23.606 7.567-1.242.745a.2.2 0 0 1-.03-.067l1.236-.741a.037.037 0 0 1 .05.012c.01.018.004.04-.014.05" fill="#00431F"/><path d="M22.33 8.897a.17.17 0 0 1-.034.105.18.18 0 0 1-.187.071c-.652-.16-2.486-.686-1.81-1.393.56-.585 1.753.813 1.99 1.102a.18.18 0 0 1 .041.115" fill="#006837"/><path d="M22.326 8.935a.2.2 0 0 1-.03.066l-1.243-.744a.037.037 0 0 1-.012-.05.035.035 0 0 1 .049-.012z" fill="#00431F"/><path d="M22.466 7.48a.2.2 0 0 1-.084.133.177.177 0 0 1-.248-.064c-.335-.588-1.223-2.295-.25-2.287.803.006.625 1.846.582 2.217" fill="#006837"/><path d="M22.381 7.613a.2.2 0 0 1-.069.024l-.324-1.424a.037.037 0 0 1 .027-.044.036.036 0 0 1 .043.028z" fill="#00431F"/><path d="M22.55 9.865a.18.18 0 0 1-.187-.07.17.17 0 0 1-.034-.106.18.18 0 0 1 .041-.115c.236-.29 1.43-1.687 1.99-1.102.677.707-1.157 1.233-1.81 1.393" fill="#006837"/><path d="m23.606 9.05-1.242.745a.2.2 0 0 1-.03-.066l1.236-.74a.037.037 0 0 1 .05.011c.01.018.004.04-.014.05" fill="#00431F"/><path d="M22.33 10.381a.2.2 0 0 1-.034.106.18.18 0 0 1-.187.071c-.652-.16-2.486-.686-1.81-1.393.56-.585 1.753.813 1.99 1.102a.18.18 0 0 1 .041.114" fill="#006837"/><path d="M22.326 10.42a.2.2 0 0 1-.03.067l-1.243-.745a.04.04 0 0 1-.012-.05.036.036 0 0 1 .049-.013z" fill="#00431F"/><path d="M22.55 11.263a.18.18 0 0 1-.187-.07.17.17 0 0 1-.034-.106q0-.066.041-.115c.236-.29 1.43-1.687 1.99-1.102.677.706-1.157 1.233-1.81 1.393" fill="#006837"/><path d="m23.606 10.449-1.242.744a.2.2 0 0 1-.03-.066l1.236-.74a.037.037 0 0 1 .05.012c.01.017.004.04-.014.05" fill="#00431F"/><path d="M14.888 13.953h.107v-.162h-4.068a.48.48 0 0 0-.345.144.5.5 0 0 0-.143.35c0 .273.22.493.488.493h4.07v-.14h-.108z" fill="#D26040"/><path d="M14.917 13.953v.686h-3.734a.336.336 0 0 1-.33-.343.35.35 0 0 1 .096-.243.32.32 0 0 1 .234-.101h3.733z" fill="#fff"/><path d="M14.917 14.127v.105H11.28a.05.05 0 0 1-.052-.053c0-.029.023-.053.052-.053zm0 .257v.105H11.28a.05.05 0 0 1-.052-.052c0-.03.023-.053.052-.053z" fill="#DDDAC7"/><path d="M14.888 13.01h.107v-.163h-4.068a.48.48 0 0 0-.345.145.5.5 0 0 0-.143.35c0 .273.22.493.488.493h4.07v-.14h-.108z" fill="#4378AE"/><path d="M14.917 13.01v.685h-3.734a.336.336 0 0 1-.33-.342.35.35 0 0 1 .096-.243.32.32 0 0 1 .234-.101h3.733" fill="#fff"/><path d="M14.917 13.183v.106H11.28a.05.05 0 0 1-.052-.053c0-.03.023-.053.052-.053zm0 .257v.106H11.28a.05.05 0 0 1-.052-.052c0-.03.023-.053.052-.053z" fill="#DDDAC7"/><path d="M19.594 13.953h.107v-.162h-4.07a.48.48 0 0 0-.345.144.5.5 0 0 0-.142.35.49.49 0 0 0 .488.493H19.7v-.14h-.108z" fill="#006837"/><path d="M19.621 13.953v.686h-3.734a.336.336 0 0 1-.33-.343.35.35 0 0 1 .097-.243.32.32 0 0 1 .233-.101h3.734z" fill="#fff"/><path d="M19.621 14.127v.105h-3.636a.05.05 0 0 1-.052-.053c0-.029.023-.053.052-.053zm0 .257v.105h-3.636a.05.05 0 0 1-.052-.052c0-.03.023-.053.052-.053z" fill="#DDDAC7"/><path d="M19.594 12.964h.107v-.162h-4.07a.48.48 0 0 0-.345.144.5.5 0 0 0-.142.35.49.49 0 0 0 .488.493H19.7v-.14h-.108z" fill="#D26040"/><path d="M19.621 12.964v.685h-3.734a.336.336 0 0 1-.33-.342.35.35 0 0 1 .097-.243.32.32 0 0 1 .233-.101h3.734z" fill="#fff"/><path d="M19.621 13.138v.105h-3.636a.05.05 0 0 1-.052-.053c0-.029.023-.053.052-.053zm0 .257v.105h-3.636a.05.05 0 0 1-.052-.052c0-.03.023-.053.052-.053z" fill="#DDDAC7"/><path d="M50.774 15.25c1.657 0 3.001-1.36 3.001-3.037 0-1.678-1.344-3.038-3.001-3.038-1.658 0-3.001 1.36-3.001 3.037 0 1.678 1.343 3.038 3 3.038" fill="#E8D3B3"/><path d="M50.774 14.855c1.657 0 3.001-1.36 3.001-3.038S52.431 8.78 50.774 8.78c-1.658 0-3.001 1.36-3.001 3.037 0 1.678 1.343 3.038 3 3.038" fill="#D26040"/><path d="M53.214 11.845c.015-1.364-1.065-2.481-2.413-2.496-1.348-.014-2.452 1.08-2.467 2.444s1.066 2.48 2.413 2.495c1.348.014 2.452-1.08 2.467-2.443" fill="#fff"/><path d="M48.334 11.817q0 .099.007.195c.099-1.271 1.152-2.275 2.433-2.275s2.334 1.004 2.432 2.275q.008-.096.008-.195c0-1.362-1.095-2.47-2.44-2.47-1.346 0-2.44 1.108-2.44 2.47" fill="#FFDECB"/><path d="M50.605 11.935a.06.06 0 0 0 .04.038l1.924.582a.06.06 0 0 0 .076-.041.06.06 0 0 0-.04-.077l-1.878-.568.095-1.464a.06.06 0 0 0-.056-.066.06.06 0 0 0-.065.057l-.099 1.513q0 .015.003.026" fill="#291D2C"/><path d="M30.582 16.032v-7.73a.23.23 0 0 1 .23-.232h14.857c.127 0 .23.104.23.233v7.729a.23.23 0 0 1-.23.233H30.812a.23.23 0 0 1-.23-.233" fill="#E8D3B3"/><path d="M30.582 15.615v-7.73a.23.23 0 0 1 .23-.232h14.857c.127 0 .23.104.23.233v7.729a.23.23 0 0 1-.23.233H30.812a.23.23 0 0 1-.23-.233" fill="#212019"/><path d="M45.373 8.185H31.107v7.13h14.266z" fill="#E8D3B3"/><path d="M45.148 15.089V8.412H31.33v6.677z" fill="#fff"/><path d="M44.488 8.967H31.992v5.567h12.496z" fill="#F4AD4B"/><path d="M41.098 12.405c0 1.176-.942 2.13-2.104 2.13s-2.103-.954-2.103-2.13.941-2.13 2.103-2.13 2.104.954 2.104 2.13" fill="#fff"/><path d="M39.11 12.767s2.291-1.62 5.378-1.65v3.416h-3.784z" fill="#00431F"/><path d="M31.992 12.45s2.44-1.226 4.936-.7c2.667.56 4.708 2.784 4.708 2.784h-9.644z" fill="#006837"/><path d="M28.701 44.835c10.46 0 18.94-.383 18.94-.854s-8.48-.853-18.94-.853-18.94.382-18.94.853 8.48.854 18.94.854" fill="#E8D3B3"/><path d="m50.487 21.414-2.282 12.703c-.1.56-.55.964-1.072.964H12.83c-.523 0-.972-.404-1.073-.964L9.476 21.414c-.132-.736.385-1.42 1.072-1.42h38.866c.688 0 1.205.684 1.073 1.42" fill="#DBBA8F"/><path d="M49.727 21.162h-39.17a.11.11 0 0 1-.111-.113c0-.063.05-.113.112-.113h39.169c.062 0 .112.05.112.113s-.051.113-.112.113" fill="#E7CEA7"/><path d="M46.803 36.206H11.479a.427.427 0 0 1-.424-.429v-2.285c0-.236.19-.428.424-.428h35.324c.233 0 .424.191.424.428v2.285c0 .237-.19.43-.424.43" fill="#C59F79"/><path d="M36.177 33.197s4.687-.862 5.466-3.365 2.653-3.08 2.653-3.08l-1.663 6.445zm-13.897 0s-4.687-.862-5.466-3.365-2.653-3.08-2.653-3.08l1.664 6.445z" fill="#DBBA8F"/><path d="M38.848 26.626s-3.134-.527-3.879-.737c-.743-.21-.745.463-.508 1.618.238 1.155.46 1.986.311 2.742s-1.406 2.867-.77 3.249c.635.38 2.755-.342 4.295.198 1.54.541 3.964.775 4.246.287.284-.488-.921-3.33-.564-4.192.358-.864 1.172-2.85.905-3.36-.265-.511-2.878.395-4.036.195" fill="#E7CEA7"/><path d="M38.651 30.17a.39.39 0 0 1-.388.394.39.39 0 0 1-.389-.393.39.39 0 0 1 .389-.394.39.39 0 0 1 .388.393" fill="#DBBA8F"/><path d="M22.047 26.091s-3.159-.348-3.913-.516c-.755-.168-.719.505-.418 1.645s.57 1.957.462 2.72c-.109.762-1.245 2.942-.59 3.287s2.731-.497 4.3-.045c1.568.453 4 .549 4.255.046s-1.105-3.272-.795-4.154 1.013-2.91.718-3.406c-.294-.494-2.853.558-4.02.423" fill="#E7CEA7"/><path d="M22.046 29.642a.39.39 0 0 1-.367.414.39.39 0 0 1-.41-.37.39.39 0 0 1 .367-.415.39.39 0 0 1 .41.37" fill="#DBBA8F"/><path d="M46.633 39.349H11.65a.597.597 0 0 1-.595-.602v-1.94c0-.332.266-.6.595-.6h34.982c.33 0 .595.268.595.6v1.94a.6.6 0 0 1-.594.602" fill="#E7CEA7"/><path d="M46.368 38.765H11.915a.11.11 0 0 1-.111-.113c0-.062.05-.113.111-.113h34.453c.062 0 .112.05.112.113a.114.114 0 0 1-.112.113m-27.897.583s-.367 1.19-1.341 1.19h-3.828c-.973 0-1.341-1.19-1.341-1.19z" fill="#DBBA8F"/><path d="m14.724 43.981 1.723-3.443h-2.823l-.99 3.443z" fill="#C59F79"/><path d="M39.624 39.348s.367 1.19 1.341 1.19h3.828c.973 0 1.342-1.19 1.342-1.19z" fill="#DBBA8F"/><path d="m45.46 43.981-.989-3.443h-2.823l1.723 3.443z" fill="#C59F79"/><path d="M29.142 32.666a.11.11 0 0 1-.112-.113V21.05a.112.112 0 1 1 .224 0v11.503a.114.114 0 0 1-.112.113M7.904 25.41h5.407c.296 0 .555.203.63.493l2.851 11.047a.658.658 0 0 1-.63.826h-5.2a.65.65 0 0 1-.627-.481L7.276 26.248a.66.66 0 0 1 .628-.838" fill="#E7CEA7"/><path d="M15.415 36.932H11.39a.39.39 0 0 1-.376-.288l-2.737-9.888a.4.4 0 0 1 .064-.345.39.39 0 0 1 .31-.156h4.21a.39.39 0 0 1 .377.294l2.552 9.889a.395.395 0 0 1-.375.494m-4.186-.349c.02.073.086.124.16.124h4.026c.052 0 .1-.024.131-.066a.17.17 0 0 0 .03-.146l-2.552-9.888a.17.17 0 0 0-.161-.127H8.652a.168.168 0 0 0-.16.215z" fill="#DBBA8F"/><path d="M12.566 31.41c.085.48-.116.92-.45.98-.332.06-.67-.281-.756-.761s.116-.92.45-.98c.332-.06.672.28.756.761" fill="#DBBA8F"/><path d="M50.556 25.41h-5.408a.654.654 0 0 0-.63.493L41.667 36.95a.658.658 0 0 0 .63.826h5.2a.65.65 0 0 0 .627-.481l3.06-11.047a.66.66 0 0 0-.628-.838" fill="#E7CEA7"/><path d="M47.07 36.932h-4.025a.395.395 0 0 1-.376-.494l2.551-9.889a.39.39 0 0 1 .377-.294h4.21a.395.395 0 0 1 .375.501l-2.738 9.888a.39.39 0 0 1-.374.288m-1.473-10.45a.17.17 0 0 0-.162.126l-2.552 9.888a.17.17 0 0 0 .03.146c.032.041.08.066.132.066h4.025c.074 0 .14-.05.16-.123l2.738-9.889a.17.17 0 0 0-.028-.148.16.16 0 0 0-.133-.067z" fill="#DBBA8F"/><path d="M47.102 31.627c.086-.48-.115-.92-.449-.98-.333-.06-.673.282-.758.763-.086.48.115.92.449.98.333.06.673-.282.758-.763" fill="#DBBA8F"/><path d="M21.413 49.968c0 .403-3.556.731-7.941.731-4.386 0-7.942-.327-7.942-.731s3.556-.732 7.942-.732c4.385.001 7.94.329 7.94.732" fill="#E8D3B3"/><path d="M21.658 40.807a8.73 8.73 0 0 0-1.56-4.46 8.8 8.8 0 0 0-1.622-1.747 8.5 8.5 0 0 0-3.282-1.657 8.3 8.3 0 0 0-2.097-.261 9 9 0 0 0-1.306.1 8.4 8.4 0 0 0-1.981.56 8.65 8.65 0 0 0-4.717 4.892 8.7 8.7 0 0 0-.573 3.27q.004.174.012.347a9 9 0 0 0 .25 1.658 8.65 8.65 0 0 0 1.693 3.37 8.7 8.7 0 0 0 1.89 1.726 8.5 8.5 0 0 0 4.733 1.441c4.738 0 8.579-3.887 8.579-8.682a10 10 0 0 0-.019-.557" fill="#D26040"/><path d="M10.21 33.183q-.203.074-.402.157c-.395 1.28-1.031 2.316-1.907 3.098-.827.738-1.776 1.158-2.645 1.395q-.087.196-.164.397c.977-.233 2.08-.682 3.032-1.532.985-.876 1.681-2.053 2.086-3.515m-.686 5.048c1.433-1.27 2.308-3.114 2.615-5.498a9 9 0 0 0-.35.046c-.306 2.254-1.139 3.994-2.489 5.19-1.428 1.267-3.19 1.676-4.414 1.797l-.228.02a7 7 0 0 0-.055.351q.15-.01.306-.026c1.277-.123 3.114-.55 4.615-1.88" fill="#A73625"/><path d="M5.935 41.796c1.381-.138 3.368-.6 4.991-2.031 1.775-1.564 2.761-3.93 2.944-7.05a9 9 0 0 0-.341-.023c-.176 3.024-1.123 5.31-2.825 6.81-1.553 1.37-3.463 1.815-4.792 1.948a11 11 0 0 1-1.395.053q.004.175.013.347.117.003.243.003c.345 0 .738-.015 1.162-.058" fill="#A73625"/><path d="M6.96 43.475a11 11 0 0 0 2.656-.595 8.5 8.5 0 0 0 2.711-1.585c2.046-1.791 3.122-4.568 3.205-8.26a8 8 0 0 0-.34-.094c-.066 3.633-1.102 6.352-3.086 8.091-1.676 1.47-3.735 1.952-5.168 2.098-.944.096-1.748.064-2.24.021q.038.18.082.354a13 13 0 0 0 2.181-.03" fill="#A73625"/><path d="M7.988 45.156a11.8 11.8 0 0 0 2.84-.638 9.2 9.2 0 0 0 2.902-1.69c2.22-1.933 3.376-4.94 3.443-8.94a7 7 0 0 0-.115-.229l-.224-.114c-.006 4.066-1.124 7.099-3.325 9.018-1.8 1.57-4.01 2.09-5.546 2.247a13 13 0 0 1-2.745-.006q.079.186.167.367a13.4 13.4 0 0 0 2.603-.015" fill="#A73625"/><path d="M12.043 46.156a9.8 9.8 0 0 0 3.092-1.795c1.781-1.546 2.923-3.735 3.41-6.533q.03-.16.054-.323.19-1.23.215-2.614-.165-.15-.337-.29a21 21 0 0 1-.146 2.356c-.385 3.109-1.53 5.505-3.415 7.14-1.924 1.67-4.283 2.226-5.923 2.398-.83.087-1.566.087-2.117.061l-.045-.002a12 12 0 0 1-.647-.048q.139.191.288.373c.274.02.623.038 1.029.038h.012l.113-.001a15 15 0 0 0 1.391-.078 12.7 12.7 0 0 0 3.026-.682" fill="#A73625"/><path d="M16.539 45.893c2.33-2.013 3.631-5.057 3.878-9.06a8 8 0 0 0-.318-.486c-.107 2.683-.68 4.937-1.707 6.744a9.6 9.6 0 0 1-2.072 2.538 10 10 0 0 1-2.619 1.615c-1.326.564-2.641.82-3.683.93-.833.09-1.575.095-2.149.073q.24.188.493.357h.046c.478 0 1.032-.023 1.635-.085a13.6 13.6 0 0 0 3.214-.725 10.5 10.5 0 0 0 3.282-1.9" fill="#A73625"/><path d="M21.517 39.695c-.5 3.22-1.77 5.723-3.793 7.465-2.105 1.812-4.668 2.457-6.507 2.674q.551.126 1.125.176a14 14 0 0 0 2.126-.58 11.1 11.1 0 0 0 3.474-2.006c1.86-1.6 3.102-3.818 3.714-6.618a9 9 0 0 0-.14-1.11" fill="#A73625"/><path d="M65.417 46.199c7.6 0 13.762-.444 13.762-.991 0-.548-6.162-.991-13.762-.991s-13.761.443-13.761.99c0 .548 6.161.992 13.761.992" fill="#E8D3B3"/><path d="M71.7 22.557s-3.932-8.78-.057-9.462c2.963-.52 2.635 5.525.057 9.462" fill="#006837"/><path d="M70.803 24.893s-5.917-5.683-3.783-7.92c2.352-2.469 4.148 3.88 3.783 7.92m-9.479.937h.766l.102-.219q.048-.099.113-.24c.109-.235.253-.548.418-.919l.004-.01c1.033-2.323 2.884-6.833 2.127-7.73-.86-1.017-1.887.508-2.634 3.397q-.075.297-.15.613a34 34 0 0 0-.643 3.982 39 39 0 0 0-.103 1.126" fill="#006837"/><path d="m61.363 25.37.231.458h.497s.038-.077.103-.218l.028-5.504c-.378 1.46-.683 3.264-.859 5.263" fill="#00431F"/><path d="M61.565 25.83h.125l2.411-7.996a.06.06 0 0 0-.04-.076.06.06 0 0 0-.075.04z" fill="#00431F"/><path d="m59.367 24.207.164.37.36.793.216.46h.766a48 48 0 0 0-.098-1.096 34 34 0 0 0-.622-3.9q-.06-.267-.123-.52c-.75-3.021-1.805-4.644-2.685-3.601-.733.866.975 5.113 2.022 7.493" fill="#006837"/><path d="m60.836 25.37-.232.458h-.497l-.102-.218-.028-5.504c.376 1.46.681 3.264.859 5.263" fill="#00431F"/><path d="M60.632 25.83h-.125l-2.411-7.996a.06.06 0 0 1 .04-.076.06.06 0 0 1 .075.04z" fill="#00431F"/><path d="M60.152 20.833c.107 1.529.255 2.96.361 3.895.078.683.133 1.101.133 1.101h.677q.12-.575.22-1.139c.252-1.395.425-2.733.527-3.968.397-4.733-.224-7.95-1.364-7.094-.817.614-.77 4.112-.555 7.205" fill="#006837"/><path d="M59.53 24.576c.142.316.266.586.361.794l.216.46h1.982s.038-.078.103-.219l.113-.24c.109-.235.252-.548.417-.92a7 7 0 0 1-1.178.24l-.117.012a6.4 6.4 0 0 1-.913.024 4.7 4.7 0 0 1-.983-.15" fill="#00431F"/><path d="m61.044 15.104.08 10.724h.12l-.081-10.725a.06.06 0 0 0-.06-.06.06.06 0 0 0-.06.061" fill="#00431F"/><path d="m57.64 25.747.1.266.062.17.18.482.063.17.184.495.063.168.792 2.128h4.326l.791-2.128.063-.168.185-.496.063-.169.18-.483.062-.169.1-.266a.28.28 0 0 0-.258-.378H57.9a.28.28 0 0 0-.26.378" fill="#F4AD4B"/><path d="m57.738 26.013.063.168h6.89l.061-.168zm.242.651.064.169h6.404l.062-.17zm.248.666.063.167H64.2l.063-.168z" fill="#D57635"/><path d="M55.785 32.124h20.214c.134 0 .241-.11.241-.245v-.897H55.544v.898c0 .134.108.244.24.244" fill="#DBBA8F"/><path d="M55.147 30.085v.443c0 .254.136.46.303.46h21.07c.167 0 .303-.206.303-.46v-.443c0-.254-.134-.46-.303-.46H55.45c-.168 0-.303.206-.303.46" fill="#E7CEA7"/><path d="M76.822 30.306H55.147v.203h21.675zm-18.739 1.256-3.417 13.68h.859L59.4 32.08z" fill="#DBBA8F"/><path d="M75.383 38.345a.3.3 0 0 1-.061-.006L57.435 34.45a.293.293 0 0 1-.223-.35.29.29 0 0 1 .346-.224l17.887 3.888c.157.034.256.19.222.35a.29.29 0 0 1-.284.231" fill="#E7CEA7"/><path d="M56.402 38.583a.295.295 0 0 1-.06-.581l18.176-3.952a.29.29 0 0 1 .346.225.295.295 0 0 1-.223.35l-18.177 3.95a.3.3 0 0 1-.062.008" fill="#E7CEA7"/><path d="M43.8 51.977c13.172 0 23.85-.902 23.85-2.015s-10.678-2.015-23.85-2.015c-13.17 0-23.848.902-23.848 2.015s10.677 2.015 23.849 2.015" fill="#E8D3B3"/><path d="M43.939 51.361c12.296 0 22.264-.704 22.264-1.573 0-.87-9.968-1.574-22.264-1.574s-22.264.704-22.264 1.574c0 .869 9.968 1.573 22.264 1.573" fill="#006837"/><path d="M43.8 50.444c10.132 0 18.346-.404 18.346-.902s-8.214-.901-18.345-.901c-10.132 0-18.346.403-18.346.901s8.214.902 18.346.902" fill="#00431F"/><path d="M39.076 28.6c-.008.27-.044.505-.087.72a7 7 0 0 1-.343 1.127c-.132.339-.276.652-.425.956q-.226.451-.467.877c-.322.566-.66 1.105-1.012 1.633a31 31 0 0 1-.815 1.166l-.143.192-.073.098-.038.049-.043.056-2.721-2.307.012-.014.016-.018.033-.036.067-.078.136-.158a26 26 0 0 0 .8-.984c.346-.445.678-.899.98-1.352q.228-.341.428-.68c.133-.225.255-.449.357-.662q.069-.144.123-.278a7 7 0 0 0-.483.052c-.255.036-.52.085-.786.142-.534.114-1.08.26-1.624.422a31 31 0 0 0-1.221.393l-.2.071-.192.068-.95-2.306.22-.1.215-.096.425-.183q.428-.18.86-.35a24 24 0 0 1 1.783-.62q.46-.138.95-.251c.33-.074.67-.139 1.049-.176.19-.018.388-.03.609-.025.22.006.461.024.749.095.144.035.302.086.473.165q.13.06.267.146a2.2 2.2 0 0 1 .475.41l.032.038.016.019.013.017a2.4 2.4 0 0 1 .423.822 3.1 3.1 0 0 1 .113.94" fill="#AD624A"/><path d="M36.67 29.251a.1.1 0 0 1-.067-.027c-.252-.24-.662-.223-.666-.223a.1.1 0 0 1-.102-.093.1.1 0 0 1 .092-.103c.02 0 .496-.022.808.276a.1.1 0 0 1 .004.139.1.1 0 0 1-.07.031" fill="#912B3B"/><path d="M36.352 29.544a.1.1 0 0 1-.092-.068 1.2 1.2 0 0 0-.314-.458.1.1 0 0 1-.005-.139.097.097 0 0 1 .137-.004c.275.26.363.53.367.541a.1.1 0 0 1-.062.123q-.016.004-.031.005" fill="#912B3B"/><path d="m62 40.549-.887 1.557-1.584-.544-.91-.313.96-1.793.91.412z" fill="#D07B5C"/><path d="m66.621 38.12-3.354 5.895a.9.9 0 0 1-.368-.11c-.513-.252-1.21-.869-1.66-1.235a4 4 0 0 0-.34-.253c-.406-.236-.13-.558-.13-.558.918-.26.435-1.44.944-1.669l.06-.024c.042-.017.106-.043.201-.079.14-.052.348-.126.639-.222.681-.225 1.41-.86 2.075-1.375a5 5 0 0 1 .406-.285c.616-.388 1.001-.4 1.23-.32.22.074.297.236.297.236" fill="#fff"/><path d="M65.094 38.202c.026.23.053.714-.127.96a1.3 1.3 0 0 1-.233.203c-.295.22-.803.53-1.256.788-.36.205-.7.383-.96.504-.423.198-.543.203-.608.18-.202-.072-.191-.392-.138-.674l.201-.078c-.07.3-.076.549-.005.578.084.01.536-.165 1.452-.686.698-.4 1.314-.806 1.403-.926.117-.159.12-.496.102-.737zm1.527-.082-3.355 5.895a.9.9 0 0 1-.368-.111l3.426-6.021c.22.076.297.237.297.237" fill="#BACAD2"/><path d="m63.609 43.414-.1.174a1.5 1.5 0 0 0-.752-.86c-.593-.307-1.179-.184-1.519-.058a4 4 0 0 0-.147-.118c.346-.146 1.03-.335 1.739.033.425.22.655.536.779.829m-.709-3.249a.11.11 0 0 1-.127.051.113.113 0 0 1-.076-.139l.12-.421a.11.11 0 0 1 .137-.077c.058.017.093.08.076.139l-.12.42zm-.512.189a.11.11 0 0 1-.126.051.113.113 0 0 1-.076-.139l.12-.42a.11.11 0 0 1 .136-.078c.059.017.093.08.077.139l-.12.42zm.932-.434a.11.11 0 0 1-.126.05.113.113 0 0 1-.077-.138l.12-.421a.11.11 0 0 1 .137-.077c.059.016.093.08.077.138l-.12.422zm.413-.25a.11.11 0 0 1-.126.05.113.113 0 0 1-.077-.138l.12-.421a.11.11 0 0 1 .137-.077c.059.016.093.08.076.138l-.12.422zm.417-.292a.11.11 0 0 1-.126.052.113.113 0 0 1-.077-.139l.12-.421a.11.11 0 0 1 .137-.077c.059.016.093.08.076.138l-.12.422zm.407-.342a.11.11 0 0 1-.126.051.113.113 0 0 1-.076-.139l.119-.42a.11.11 0 0 1 .137-.078c.059.017.093.08.077.139l-.12.42a.1.1 0 0 1-.011.027" fill="#BACAD2"/><path d="m59.786 39.575-.966 1.722s-.574-.124-1.334-.315l-.177-.045c-.881-.225-1.958-.528-2.68-.83-1.413-.593-4.591-2.306-4.591-2.306s-.412 2.026-2.629 5.488c-4.91 7.67-8.981 1.351-8.981 1.351.517-.057 1.959-2.642 2.763-3.663 2.41-2.601 4.499-4.68 6.27-6.033q.638-.489 1.229-.816c.506-.282 1.456-.092 2.598.35 2.407.929 5.619 3.062 7.322 4.254l.144.1c.64.451 1.032.743 1.032.743" fill="#310F0B"/><path d="M57.69 40.637a.09.09 0 0 1-.102.04c-1.688-.56-3.631-1.54-5.193-2.328-1.295-.653-2.518-1.27-2.751-1.188-.19.066-.408.666-.684 1.426-.549 1.513-1.38 3.8-3.203 5.8-.992 1.09-2.113 1.665-3.33 1.712-2.098.082-3.772-1.468-3.789-1.484a.09.09 0 0 1-.004-.124.086.086 0 0 1 .123-.005c.016.016 1.64 1.517 3.665 1.437 1.167-.046 2.246-.603 3.207-1.656 1.8-1.974 2.623-4.24 3.167-5.74.327-.898.524-1.44.791-1.533.29-.101 1.189.341 2.887 1.197 1.556.785 3.492 1.762 5.169 2.318a.09.09 0 0 1 .055.112z" fill="#491B0B"/><path d="m58.753 38.833-1.269 2.15-.177-.045 1.302-2.206z" fill="#491B0B"/><path d="m61.917 44.17-.93 1.533-1.567-.59-.9-.338 1.006-1.765.9.437z" fill="#D07B5C"/><path d="m66.604 41.874-3.517 5.797a.9.9 0 0 1-.365-.121c-.506-.265-1.185-.902-1.626-1.282l-.144-.122a2 2 0 0 0-.188-.14c-.399-.248-.114-.562-.114-.562.924-.234.474-1.427.989-1.642l.06-.023c.042-.016.107-.04.203-.073.143-.048.351-.117.646-.204.688-.206 1.433-.821 2.112-1.316a6 6 0 0 1 .414-.274c.627-.37 1.013-.371 1.24-.285.218.084.29.246.29.246" fill="#fff"/><path d="M65.075 41.913c.019.23.033.714-.154.954a1.3 1.3 0 0 1-.238.197c-.3.21-.817.508-1.277.753-.365.193-.71.364-.972.477-.43.184-.55.188-.615.162-.2-.077-.18-.396-.12-.676l.205-.073c-.078.297-.092.545-.023.578.084.012.541-.15 1.47-.645.71-.379 1.337-.768 1.429-.885.121-.156.134-.493.121-.735zm1.529-.04-3.517 5.797a.9.9 0 0 1-.365-.12l3.593-5.922a.52.52 0 0 1 .288.245" fill="#BACAD2"/><path d="m63.446 47.08-.104.173a1.5 1.5 0 0 0-.728-.882c-.583-.323-1.173-.217-1.516-.101q-.077-.068-.144-.123c.35-.136 1.039-.305 1.737.082.417.232.639.555.755.851m-.619-3.268a.111.111 0 0 1-.2-.093l.13-.418a.11.11 0 0 1 .14-.072.11.11 0 0 1 .071.14l-.13.419zm-.517.175a.111.111 0 0 1-.2-.093l.13-.418a.11.11 0 0 1 .14-.073c.059.02.091.082.072.142l-.13.417zm.945-.407a.11.11 0 0 1-.129.047.11.11 0 0 1-.072-.14l.131-.419a.11.11 0 0 1 .14-.072.11.11 0 0 1 .071.14l-.13.419zm.419-.24a.11.11 0 0 1-.128.049.11.11 0 0 1-.072-.141l.13-.418a.11.11 0 0 1 .14-.073c.059.02.09.082.072.141l-.13.418zm.424-.28a.11.11 0 0 1-.128.049.11.11 0 0 1-.072-.141l.13-.418a.11.11 0 0 1 .14-.073c.058.02.09.082.072.141l-.13.418zm.418-.331a.111.111 0 0 1-.2-.093l.13-.417a.11.11 0 0 1 .14-.073c.059.019.09.082.072.14l-.13.419q-.005.014-.012.024" fill="#BACAD2"/><path d="m59.68 43.055-.973 1.791s-.544-.181-1.271-.44l-.168-.06c-.87-.309-1.943-.707-2.665-1.034-1.397-.632-4.567-2.227-4.567-2.227s-.467 2.014-2.78 5.41c-5.12 7.528-9.015 1.096-9.015 1.096.518-.043 2.032-2.586 2.864-3.584 2.48-2.531 4.626-4.55 6.433-5.852q.652-.47 1.252-.78c.513-.267 1.458-.05 2.587.422 2.407 1.009 5.576 3.23 7.215 4.438l.142.104c.589.436.946.716.946.716" fill="#491B0B"/><path d="m42.105 48.409-.103-.002c-.825-.02-1.383-.26-1.406-.27l.055-.128c.006.002.561.24 1.361.258.736.017 1.837-.155 2.903-1.068 1.398-1.198 2.434-3.557 3.19-5.28.585-1.33.971-2.21 1.339-2.277.58-.106 2.135.766 3.935 1.777 1.51.848 3.221 1.809 4.456 2.22l-.043.134c-1.248-.417-2.966-1.381-4.48-2.231-1.704-.957-3.312-1.86-3.844-1.762-.296.054-.732 1.047-1.236 2.196-.762 1.735-1.805 4.112-3.227 5.33-1.054.901-2.142 1.103-2.9 1.103" fill="#6D2B19"/><path d="M57.606 44.137a.09.09 0 0 1-.104.037c-1.672-.61-3.587-1.643-5.126-2.474-1.276-.689-2.481-1.34-2.718-1.266-.191.06-.426.656-.724 1.408-.59 1.498-1.484 3.759-3.362 5.706-1.022 1.061-2.159 1.605-3.376 1.619-2.1.022-3.73-1.575-3.746-1.59a.09.09 0 0 1-.001-.126.087.087 0 0 1 .124-.001c.015.016 1.597 1.562 3.623 1.54 1.169-.012 2.263-.539 3.251-1.565 1.854-1.922 2.74-4.164 3.326-5.648.35-.888.562-1.425.833-1.51.292-.093 1.179.374 2.852 1.277 1.534.829 3.443 1.86 5.103 2.464a.09.09 0 0 1 .053.113z" fill="#6D2B19"/><path d="m58.734 42.34-1.298 2.067-.168-.06 1.325-2.113z" fill="#6D2B19"/><path d="M41.973 41.441c-.837 1.695-.392 8.595-1.998 8.004-3.85-1.417-6.732-4.124-8.22-6.03a10 10 0 0 0-.638-.727 29 29 0 0 0-1.133-1.102c-1.489-1.39-3.065-2.77-2.801-3.741.237-.873.832-1.304 1.169-1.86.207-.344.479-.646.8-.888l1.865-1.404s1.373-.995 1.845-1.067c.473-.073 1.494.678 2.795.999 1.299.32 2.217 1.031 2.638 2.403.366 1.194.144.825 1.359 2.16 1.49 1.637 3.724.415 2.32 3.253" fill="#FBB03B"/><path d="m40.623 48.96-.018-.002c-1.606-.384-3.779-1.948-4.93-2.848-1.724-1.344-3.18-2.746-3.727-3.436-1.12-1.415-2.971-3.104-2.99-3.121a.085.085 0 0 1-.007-.119.083.083 0 0 1 .118-.007c.018.017 1.879 1.716 3.009 3.142.54.682 1.984 2.072 3.697 3.408 1.971 1.538 3.7 2.538 4.867 2.817a.085.085 0 0 1 .062.1.08.08 0 0 1-.08.066" fill="#CD7C16"/><path d="m29.373 39.982-.137-.021-.128-.022-.25-.044-.499-.092q-.495-.097-.989-.206a29 29 0 0 1-1.981-.511 19 19 0 0 1-1.004-.33c-.337-.122-.68-.257-1.03-.422a8 8 0 0 1-.537-.275 6 6 0 0 1-.565-.362 4 4 0 0 1-.3-.24 3 3 0 0 1-.313-.311 3 3 0 0 1-.315-.429 2.45 2.45 0 0 1-.33-.961 2 2 0 0 1-.013-.29l.001-.054.004-.05a2.5 2.5 0 0 1 .055-.37q.04-.168.092-.302.025-.068.052-.13l.055-.118.028-.055.028-.052c.018-.036.037-.066.056-.1a4 4 0 0 1 .228-.336c.152-.198.3-.36.446-.507q.219-.22.436-.404c.289-.247.574-.464.861-.67q.43-.305.86-.58.483-.308.968-.59a.26.26 0 0 1-.016.18c-.124.254.145 1.459.94 1.471.381.006.558.229.706.492q-.54.365-1.053.746-.367.272-.705.554a10 10 0 0 0-.737.678q.145.067.313.13c.239.093.501.178.775.255q.41.116.844.213c.578.13 1.174.237 1.777.328a35 35 0 0 0 1.362.178l.224.024.11.01.055.005.026.003h.02c.888 1.496.645 2.654-.42 3.567" fill="#AD624A"/><path d="M25.728 35.747s-.434 1.92-1.019 3.12c0 0 .39.457 1.466.437 0 0 .692-1.273.92-3.275 0 0-.595-.43-1.367-.282" fill="#FBB03B"/><path d="M23.988 36.402a.096.096 0 0 1-.095-.095c-.015-.707.31-1.089.323-1.104a.095.095 0 0 1 .135-.01c.04.035.043.097.009.137-.003.005-.289.348-.277.974a.096.096 0 0 1-.094.098z" fill="#8A2A34"/><path d="M24.398 36.03a.1.1 0 0 1-.086-.052l-.238-.46a.1.1 0 0 1 .04-.13.096.096 0 0 1 .13.04l.238.459a.1.1 0 0 1-.04.131.1.1 0 0 1-.044.011" fill="#8A2A34"/><path d="m32.175 37.527 1.273 1.07s1.68-1.849 2.896-2.965l-1.273-.904s-1.817 1.547-2.896 2.799m6.915 7.66a.08.08 0 0 1-.116-.07 9.8 9.8 0 0 1 .591-4.071c.362-.966.748-1.509.763-1.531a.08.08 0 0 1 .114-.02.084.084 0 0 1 .019.116c-.003.006-.39.552-.745 1.5a9.65 9.65 0 0 0-.579 3.996.09.09 0 0 1-.046.08m-1.46-2.26a.081.081 0 0 1-.11-.107c.034-.075.816-1.835 2.032-2.77a.08.08 0 0 1 .114.016.083.083 0 0 1-.015.115c-1.183.91-1.973 2.688-1.981 2.706a.1.1 0 0 1-.04.04m-.903-8.953a.074.074 0 0 0-.037-.104 4 4 0 0 0-.532-.173c-1.567-.393-2.216-.802-2.223-.806a.07.07 0 0 0-.102.023.076.076 0 0 0 .022.104c.027.016.672.424 2.267.825q.281.071.514.166a.073.073 0 0 0 .09-.033z" fill="#CD7C16"/><path d="M32.306 33.026s1.53-.13 1.24-1.38c-.127-.541-.032-.48.3-1.064s.28-.769.062-1.156c-.218-.388-.674-.409-.579-.855.125-.587-.206-1.429-.89-1.595-.66-.16-.723-.137-.82-.472-.125-.438-.775-1.012-1.68-.667-.779.297-.767-.132-1.382-.14-1.144-.019-1.39 1.053-1.743 1.192-.353.14-.978.33-1.156.91-.222.72.268 1.11-.212 1.305-.479.195-.85.773-.705 1.218s.518.751.395 1.005c-.124.253.145 1.458.94 1.47 1.088.017.517 1.807 2.346 1.241 1.644-.51 3.884-1.012 3.884-1.012" fill="#212019"/><path d="M31.96 30.016s.27-.614.644-.19c.374.425.48 1.475-.193 1.495z" fill="#8A2A34"/><path d="m31.687 32.835.438 1.325s-.422 1.414-2.94.61c.27-.568.04-1.433-.271-1.907 0 0 .171.01.467.089.057.015.122.017.189.024.592.07 1.463.108 2.117-.14" fill="#AD624A"/><path d="m31.687 32.835.208.629c-.611.039-1.734.024-2.513-.512q.088.013.189.024c.59.07 1.462.108 2.116-.14" fill="#212019"/><path d="M32.707 32.054c-.79 1.511-3.695.836-3.789.813h-.002a8.7 8.7 0 0 1-.94-2.74c-.275-.806-.013-1.708.667-2.21.703-.52 1.51-.377 1.972-.37.697.013 1.339.732 1.684 1.924.423 1.463.604 2.208.408 2.583" fill="#AD624A"/><path d="M31.936 30.985c.063.207 0 .41-.14.454-.141.043-.306-.09-.368-.296-.063-.207 0-.41.14-.454.141-.043.305.089.368.296" fill="#fff"/><path d="M31.207 28.733s-.19.156.005.296.465-.341.984-.191c0 0-.174-.534-.99-.105m-.902.267s.242.034.147.256c-.096.221-.573-.047-.94.354.001 0-.125-.548.793-.61" fill="#212019"/><path opacity=".8" d="M30.592 30.63c.032.11-.167.265-.444.347-.278.082-.528.057-.56-.053s.168-.265.445-.347c.277-.08.527-.057.56.053m2.101-.406q-.057.024-.12.042c-.276.08-.527.057-.558-.053s.167-.265.445-.347a1 1 0 0 1 .11-.027z" fill="#8A2A34"/><path d="M30.51 29.995c.043.152.01.294-.074.319s-.187-.078-.23-.23-.01-.295.073-.32c.084-.023.187.08.23.23m1.485-.434c.043.151.01.295-.073.32-.085.024-.187-.079-.23-.231s-.012-.295.072-.32c.083-.023.187.08.23.231m-.503.775a.6.6 0 0 0 .122-.05.06.06 0 0 0 .03-.042.07.07 0 0 0-.01-.051l-.418-.595a.065.065 0 0 0-.09-.016.066.066 0 0 0-.015.091l.372.53a.5.5 0 0 1-.269.019.064.064 0 0 0-.076.05.065.065 0 0 0 .05.078c.12.025.227.009.305-.014m-2.262 1.775c-.002.018-.067.54-.312.758l-.002-.002a9 9 0 0 1-.153-.295c.011-.005.283-.14.467-.462" fill="#212019"/><path d="M28.654 31.136s-.833-.64-1.09.13c-.21.634.867 1.809 1.45 1.128z" fill="#AD624A"/><path d="m28.86 32.172.007-.002a.065.065 0 0 0 .036-.085 1.2 1.2 0 0 0-.945-.745.064.064 0 0 0-.07.058.064.064 0 0 0 .057.07c.025.003.597.069.84.666a.063.063 0 0 0 .075.038" fill="#212019"/><path d="M28.177 31.962a.06.06 0 0 0 .034-.026c.04-.06.173-.215.287-.22a.065.065 0 0 0 .061-.067.064.064 0 0 0-.066-.062c-.2.006-.37.247-.388.274a.064.064 0 0 0 .016.09.06.06 0 0 0 .056.01" fill="#212019"/><path d="M28.08 31.499s-.273.122-.111.328c.161.206.39.018.39.018l.38.523c.065.087.15.124.233.055a2.6 2.6 0 0 0-.438-.68c-.001 0-.246-.24-.454-.244" fill="#fff"/><path d="M27.621 29.35s1.037.518 1.33.23c.291-.29-.463-.813-.463-.813s1.406.31 1.811-.041c.405-.352-.596-.681-.596-.681s1.167.563 1.68.36c.515-.204-.206-.724-.206-.724s.753.804 1.049.63-.521-1.407-1.71-1.56c-1.188-.15-3.854.72-2.895 2.6" fill="#212019"/><path d="M28.42 29.428s.766 1.653.336 1.787c-.429.135-1.056-.413-1.135-1.865zm4.945 18.702h-7.373a.265.265 0 0 1-.263-.267v-.108c0-.148.118-.267.263-.267h7.373c.146 0 .263.12.263.267v.108a.265.265 0 0 1-.263.267" fill="#212019"/><path d="M27.97 46.264v2.978a.21.21 0 0 1-.208.21h-.467a.21.21 0 0 1-.208-.21v-2.978a.21.21 0 0 1 .208-.21h.467a.21.21 0 0 1 .208.21" fill="#FBB03B"/><path d="M27.096 46.587v2.332a.165.165 0 0 1-.163.165h-.366a.164.164 0 0 1-.163-.165v-2.332c0-.091.073-.165.163-.165h.366c.088 0 .163.074.163.165" fill="#CD7C16"/><path d="M32.358 46.238v2.977a.21.21 0 0 1-.208.21h-.467a.21.21 0 0 1-.208-.21v-2.977a.21.21 0 0 1 .208-.21h.467a.21.21 0 0 1 .208.21" fill="#FBB03B"/><path d="M33.042 46.56v2.334c0 .09-.074.164-.163.164h-.366a.164.164 0 0 1-.163-.164V46.56c0-.091.073-.165.163-.165h.366c.09 0 .163.074.163.165" fill="#CD7C16"/></svg>