<svg width="672" height="505" viewBox="0 0 672 505" fill="none" xmlns="http://www.w3.org/2000/svg"><path d="M194.68 263.743h-.671l.192.643 5.109 17.111.001.001a.3.3 0 0 1-.125.349c-.113.079-.24.08-.344-.003l-.007-.005-23.558-17.993-.135-.103h-43.584c-7.601 0-13.746-6.176-13.746-13.763v-29.66c0-7.613 6.17-13.789 13.746-13.789h63.601c7.6 0 13.745 6.176 13.745 13.763v29.686c0 7.611-6.169 13.763-13.745 13.763z" fill="#FFE5D7" stroke="#FFE5D7"/><path d="M195.133 230.979h-61.058a7.057 7.057 0 0 1 0-14.112h61.058c3.902 0 7.048 3.175 7.048 7.056s-3.146 7.056-7.048 7.056m0 21.571h-61.058a7.04 7.04 0 0 1-7.048-7.056 7.057 7.057 0 0 1 7.048-7.056h61.058a7.04 7.04 0 0 1 7.048 7.056c0 3.881-3.146 7.056-7.048 7.056" fill="#FEAF9E"/><path d="M520.764 125.92h-69.365c-8.582 0-15.554 6.981-15.554 15.574v32.382c0 8.593 6.972 15.574 15.554 15.574h.504l-5.562 18.673c-.252.831.704 1.487 1.384.957l25.697-19.63h47.317c8.582 0 15.554-6.981 15.554-15.574v-32.382c.025-8.618-6.947-15.574-15.529-15.574" fill="#FFE5D7"/><path d="M520.185 153.288h-69.843c-3.473 0-6.267-2.823-6.267-6.275v-1.563a6.27 6.27 0 0 1 6.267-6.274h69.843c3.473 0 6.267 2.822 6.267 6.274v1.563c0 3.452-2.819 6.275-6.267 6.275m-34.103 21.344h-32.694c-3.901 0-7.047-3.175-7.047-7.056a7.04 7.04 0 0 1 7.047-7.056h32.694c3.901 0 7.047 3.175 7.047 7.056.025 3.906-3.146 7.056-7.047 7.056" fill="#FEAF9E"/><path d="M57.94 365.774c2.617-1.991 5.788-2.974 9.463-2.974 7.953 0 12.156 4.335 12.156 10.408 0 3.503-1.686 7.081-5.134 10.634-4.38 4.612-7.525 6.905-9.514 6.905-1.938 0-3.322-1.512-3.322-3.326 0-1.638 1.51-3.276 4.153-5.67.176-.177.352-.353.478-.403 2.97-2.747 3.926-4.259 3.926-6.149 0-2.344-1.585-3.629-3.85-3.629-1.058 0-2.29.227-3.75.706-1.46.478-2.517.705-3.147.705-1.636 0-3.498-1.411-3.498-3.755-.076-1.234.63-2.394 2.039-3.452m8.003 39.01c-3.574 0-5.965-2.697-5.965-5.973 0-2.797 2.391-5.493 5.965-5.493 3.096 0 5.487 2.696 5.487 5.493 0 3.226-2.29 5.973-5.487 5.973m469.268-170.277c1.736-1.31 3.8-1.965 6.216-1.965 5.235 0 8.004 2.847 8.004 6.854 0 2.318-1.107 4.662-3.373 7.006-2.869 3.049-4.958 4.536-6.267 4.536a2.176 2.176 0 0 1-2.189-2.193c0-1.083 1.007-2.142 2.718-3.729.126-.126.226-.227.302-.278 1.963-1.814 2.567-2.797 2.567-4.032 0-1.537-1.032-2.394-2.542-2.394-.679 0-1.51.152-2.466.454s-1.661.454-2.064.454c-1.082 0-2.316-.933-2.316-2.47.025-.781.504-1.537 1.41-2.243m5.26 25.654c-2.341 0-3.926-1.764-3.926-3.931 0-1.84 1.585-3.604 3.926-3.604 2.039 0 3.599 1.764 3.599 3.604.025 2.142-1.485 3.931-3.599 3.931M650.13 376.686h-72.938a2.354 2.354 0 0 1-2.341-2.344v-62.874a2.354 2.354 0 0 1 2.341-2.344 2.354 2.354 0 0 1 2.34 2.344v60.53h70.598a2.354 2.354 0 0 1 2.341 2.344 2.354 2.354 0 0 1-2.341 2.344" fill="#FFE5D7"/><path d="M582.704 361.314a2.35 2.35 0 0 1-1.611-.656 2.32 2.32 0 0 1-.05-3.301l23.582-24.419c.781-.806 2.014-.957 2.945-.327l11.15 7.232 11.754-13.683c.83-.983 2.315-1.084 3.297-.252.981.831 1.082 2.318.251 3.301l-13.087 15.221a2.32 2.32 0 0 1-3.046.428l-11.25-7.308-22.249 23.033a2.3 2.3 0 0 1-1.686.731" fill="#FFE5D7"/><path d="m634.048 336.189-3.323-6.753-7.148-2.294 15.932-7.912zM160.074 148.701c-7.803 0-14.12-6.35-14.12-14.137 0-7.812 6.343-14.137 14.12-14.137 7.802 0 14.119 6.35 14.119 14.137.025 7.787-6.317 14.137-14.119 14.137m0-24.393c-5.638 0-10.244 4.586-10.244 10.256 0 5.645 4.581 10.256 10.244 10.256 5.637 0 10.243-4.586 10.243-10.256s-4.606-10.256-10.243-10.256" fill="#FFE5D7"/><path d="M591.16 261.295c-5.713 0-10.344-4.637-10.344-10.357 0-5.721 4.631-10.358 10.344-10.358s10.344 4.637 10.344 10.358c0 5.72-4.631 10.357-10.344 10.357m0-17.867c-4.127 0-7.5 3.377-7.5 7.51 0 4.132 3.373 7.509 7.5 7.509 4.128 0 7.5-3.377 7.5-7.509s-3.372-7.51-7.5-7.51" fill="#FEAF9E"/><path d="M47.822 318.096c-5.135 0-9.287-4.184-9.287-9.299 0-5.116 4.178-9.299 9.287-9.299 5.134 0 9.287 4.183 9.287 9.299s-4.178 9.299-9.287 9.299m0-16.028c-3.725 0-6.745 3.024-6.745 6.754s3.02 6.754 6.745 6.754a6.75 6.75 0 0 0 6.745-6.754c-.025-3.73-3.045-6.754-6.745-6.754m498.097-193.84a5.064 5.064 0 0 0-4.183-5.812 5.06 5.06 0 0 0-5.804 4.189 5.064 5.064 0 0 0 4.183 5.811 5.06 5.06 0 0 0 5.804-4.188" fill="#FFE5D7"/><path d="M102.815 201.142c0 5.494-4.455 9.954-9.941 9.954s-9.942-4.46-9.942-9.954c0-5.493 4.455-9.954 9.942-9.954 5.486 0 9.941 4.461 9.941 9.954m473.37-113.349c0 4.133-3.347 7.484-7.475 7.484s-7.475-3.351-7.475-7.484 3.347-7.485 7.475-7.485 7.475 3.352 7.475 7.485m36.57 179.676a6.36 6.36 0 0 1-6.368 6.375 6.36 6.36 0 0 1-6.367-6.375 6.363 6.363 0 0 1 6.367-6.376 6.363 6.363 0 0 1 6.368 6.376" fill="#FEAF9E"/><path d="M557.535 126.5a7.943 7.943 0 0 1-7.953 7.963 7.94 7.94 0 0 1-7.953-7.963 7.94 7.94 0 0 1 7.953-7.963 7.943 7.943 0 0 1 7.953 7.963m-365.774-14.465c0 4.461-3.625 8.089-8.079 8.089s-8.079-3.628-8.079-8.089c0-4.46 3.624-8.089 8.079-8.089 4.454 0 8.079 3.629 8.079 8.089" fill="#FFE5D7"/><path d="M573.266 494.017H95.743a2.816 2.816 0 0 1-2.819-2.823 2.816 2.816 0 0 1 2.819-2.822h477.523c1.56 0 2.818 1.26 2.818 2.822a2.816 2.816 0 0 1-2.818 2.823" fill="#201D40"/><path d="M253.701 246.704h.025l7.324.025 1.661 17.313-8.557 4.536-9.136-4.486 1.485-17.363z" fill="#F37A50"/><path d="M233.566 239.043c4.505 11.29 15.353 17.565 24.187 14.011 8.859-3.553 12.383-15.573 7.853-26.863-4.506-11.289-15.353-17.564-24.187-14.011s-12.358 15.574-7.853 26.863" fill="#F37A50"/><path d="M261.78 229.896c.528.756 1.56.932 2.315.403a1.66 1.66 0 0 0 .403-2.319 1.655 1.655 0 0 0-2.315-.403c-.73.529-.932 1.563-.403 2.319m-12.433 5.09c.553.806 1.686 1.008 2.491.454.806-.58 1.007-1.689.453-2.495-.553-.807-1.686-1.008-2.491-.454-.806.555-1.007 1.663-.453 2.495" fill="#000"/><path d="M259.263 232.542a586 586 0 0 0 5.034 3.906s.025 2.696-3.121 3.88c1.132-1.033 2.139-2.419.956-4.006s-2.869-3.78-2.869-3.78" fill="#DE623C"/><path d="M246.1 233.902c-.076 0-.126 0-.202-.025a.806.806 0 0 1-.604-1.008c.302-1.209 1.51-3.528 4.027-3.528.453 0 .831.378.831.832a.84.84 0 0 1-.831.831c-1.862 0-2.416 2.243-2.416 2.268a.83.83 0 0 1-.805.63m13.943-7.509a.63.63 0 0 1-.352-.101.697.697 0 0 1-.252-.932c.025-.051.755-1.26 2.114-1.512.932-.177 1.913.126 2.87.907.302.227.352.68.1.983a.685.685 0 0 1-.981.1c-.655-.529-1.234-.73-1.762-.63-.755.126-1.183.857-1.183.857-.075.202-.327.328-.554.328" fill="#201D40"/><path d="M227.4 230.601c-3.826-10.886 5.486-17.136 5.486-17.136s-2.491-.227-2.793-3.729a9.3 9.3 0 0 0 5.788-.126c12.383-4.486 20.915-4.436 20.915.882 0 1.89 8.18.604 7.501 13.305.05-.907-2.87-6.123-5.638-6.653-2.769-.529-.277 3.176-6.04 3.982-5.814.806-10.118-.605-13.667 2.671-2.794 2.873-3.473 17.464-3.045 18.346-.957-2.016-6.821-6.754-8.507-11.542" fill="#201D40"/><path d="M267.342 232.542s.529 6.627-.428 8.668c-.981-2.646-3.121.152-5.134.429-4.833.63-13.566-.983-14.422 6.3-5.914 1.865-11.452-10.786-11.452-10.786-.327 14.163 9.992 22.201 24.892 19.833 9.816-1.563 10.722-15.246 6.544-24.444" fill="#201D40"/><path d="M257.149 246.124c-.957-.226-1.963-.63-2.995-1.184a.55.55 0 0 1-.227-.756.55.55 0 0 1 .755-.227c2.291 1.235 4.355 1.563 6.091 1.033 2.165-.655 3.171-2.494 3.171-2.52a.547.547 0 0 1 .755-.226.55.55 0 0 1 .227.756c-.05.1-1.208 2.242-3.8 3.049-1.234.378-2.568.403-3.977.075" fill="#DE623C"/><path d="M235.781 237.229c2.491 1.411 3.574 4.183 2.441 6.224-1.132 2.041-4.102 2.571-6.569 1.159-2.492-1.411-3.574-4.183-2.441-6.224 1.132-2.041 4.077-2.545 6.569-1.159" fill="#F37A50"/><path d="M235.403 243.352a.6.6 0 0 0 .202-.226c.679-1.26.578-2.571-.302-3.453-.881-.907-2.341-1.184-3.423-.63a.626.626 0 0 0-.277.832.624.624 0 0 0 .83.277c.604-.302 1.46-.126 1.964.378.478.504.528 1.21.1 1.991-.176.302-.05.68.252.857.201.126.453.1.654-.026" fill="#DE623C"/><path d="M262.182 478.166c1.561-4.234 4.883-4.712 4.883-4.712 6.468 8.946 22.4 3.452 21.871 15.573-24.212-.151-34.254 0-34.254 0 .025-2.772.503-9.374 1.057-11.97l1.259.227zm-36.217.252c1.561-4.234 4.883-4.712 4.883-4.712 6.468 8.946 22.4 3.452 21.871 15.573-24.212-.151-34.254 0-34.254 0 .025-2.772.503-9.374 1.057-11.97l1.258.227z" fill="#000"/><path d="M278.29 336.769s3.927 57.38 2.341 70.131c-1.586 12.752-7.249 29.106-6.619 71.316-7.878 1.966-19.33 0-19.33 0s-1.686-47.703 6.645-69.022c-3.398-20.69-14.271-68.116-14.271-68.116z" fill="#201D40"/><path d="M263.34 338.356s-7.928 64.412-11.829 76.634c-3.876 12.222-11.452 22.554-18.499 64.108-8.104.404-15.655 0-15.655 0s1.083-52.718 13.717-64.713c.428-20.992-2.038-75.625-2.038-75.625z" fill="#2C2858"/><path d="M226.77 265.226s13.793-4.838 18.373-2.621c14.271 6.88 17.543 0 17.543 0 4.555.403 18.348 2.621 18.348 2.621 0 15.397 1.032 30.845.755 42.512-.201 10.156 1.736 37.775 1.736 37.775s-15.201 3.982-29.573 4.083c-14.371-.101-28.994-3.932-28.994-3.932s.78-27.972 1.41-38.379c-.227-11.643.402-26.687.402-42.059" fill="#254CE6"/><path d="M305.548 288.133c-5.688-13.583-22.576-22.227-24.489-22.882l-3.926 17.439c8.104 4.813 13.993 10.004 13.993 10.004-1.006 4.864-.83 9.626-3.649 15.775 0 0 2.441-3.377 5.436-1.386 2.92 1.941 8.306-2.016 8.306-2.016s8.658-6.577 4.329-16.934" fill="#2041C4"/><path d="M302.377 322.455c.1.025.201.051.302.051h.327c.604-.076 1.132-.479 1.309-1.084l15.176-48.938c.025-.101.05-.202.05-.303v-.327c0-.026-.025-.076-.025-.101a1.6 1.6 0 0 0-1.057-1.235c-.1-.025-.176-.05-.277-.05h-38.507l-15.303 52.012h38.03z" fill="#95A6DB"/><path d="M280.002 270.569a1.555 1.555 0 0 0-1.938 1.008l-15.076 48.838-.025.126a1.53 1.53 0 0 0 1.006 1.915 1.555 1.555 0 0 0 1.938-1.008l15.101-48.938a1.55 1.55 0 0 0-1.006-1.941" fill="#768FDB"/><path d="M308.845 301.615c.151-.101.302-.151.453-.202-.025-.025-.025-.05-.05-.075-.957-1.437-.881-3.15.151-3.831.176-.101.352-.176.553-.227-.276-1.058-.025-2.066.705-2.57.302-.202.629-.277.982-.277-.328-1.033-.076-2.142.755-2.697 1.032-.68 2.517-.252 3.322.983s.629 2.772-.403 3.453a1.75 1.75 0 0 1-.855.302c.679 1.336.553 2.797-.378 3.402a2.1 2.1 0 0 1-.554.227c.277 1.058.025 2.066-.704 2.57a1.66 1.66 0 0 1-.906.277c.327.908.125 1.89-.605 2.369-.88.58-2.139.202-2.818-.831-.655-.983-.529-2.294.352-2.873m-46.939-3.1 3.473-2.016s.956-4.939 6.544-5.065a1150 1150 0 0 1-1.561 5.065s2.744 2.142 9.262-1.512c6.368-1.436 3.65 3.226 5.764 3.553 3.121.504-2.265 6.628-8.633 7.56-8.23 1.21-9.211-.478-9.211-.478l-4.657 1.638z" fill="#F37A50"/><path d="M229.715 303.807c11.628-.806 31.461-6.577 31.461-6.577 3.171 4.864 2.29 11.365 2.29 11.365-18.071 15.851-45.253 20.992-53.584 17.161-7.626-3.477-2.24-49.896 16.888-60.53 6.569 11.113 2.945 38.581 2.945 38.581" fill="#28388A"/><path d="M417.17 473.857c-6.493 8.643-22.4 3.351-21.871 15.044 24.212-.151 34.254 0 34.254 0-.025-2.696-.503-9.072-1.057-11.567zm36.218.227c-6.468 8.643-22.4 3.351-21.871 15.044 24.212-.151 34.254 0 34.254 0-.025-2.696-.504-9.072-1.057-11.567z" fill="#000"/><path d="M405.97 341.733s-3.926 55.465-2.34 67.813c1.585 12.323 7.248 28.149 6.619 68.948 7.878 1.915 19.329 0 19.329 0s1.687-46.116-6.644-66.73c3.398-20.009 14.27-65.848 14.27-65.848z" fill="#201D40"/><path d="M420.895 343.245s7.928 62.269 11.829 74.088c3.876 11.819 11.452 21.798 18.499 61.992 8.105.403 17.769-1.613 17.769-1.613s-3.196-49.366-15.831-60.958c-.428-20.286 2.039-73.106 2.039-73.106z" fill="#2C2858"/><path d="M453.212 241.362c-4.304 10.76-14.623 16.732-23.08 13.356-8.431-3.377-11.804-14.843-7.5-25.604s14.623-16.732 23.08-13.356c8.431 3.377 11.804 14.843 7.5 25.604" fill="#F37A50"/><path d="M426.307 232.642c-.504.706-1.485.908-2.19.404s-.906-1.487-.403-2.193c.504-.705 1.485-.907 2.19-.403.73.479.906 1.462.403 2.192m11.854 4.839c-.529.781-1.611.957-2.391.428s-.957-1.613-.428-2.394 1.611-.957 2.391-.428c.78.554.956 1.613.428 2.394" fill="#000"/><path d="M428.723 235.162a487 487 0 0 1-4.807 3.73s-.026 2.57 2.995 3.704c-1.083-.982-2.039-2.318-.907-3.83a149 149 0 0 1 2.719-3.604" fill="#DE623C"/><path d="M441.282 236.448a.78.78 0 0 1-.755-.605c-.025-.076-.554-2.142-2.316-2.142a.79.79 0 0 1-.78-.807c0-.428.353-.781.78-.781 2.417 0 3.574 2.218 3.851 3.377a.79.79 0 0 1-.579.958zm-13.314-7.157a.63.63 0 0 1-.554-.328c0-.025-.428-.705-1.133-.831-.503-.101-1.057.126-1.661.604a.67.67 0 0 1-.931-.1.675.675 0 0 1 .101-.933c.931-.731 1.837-1.033 2.743-.857 1.309.252 1.988 1.412 2.014 1.462a.69.69 0 0 1-.227.907.9.9 0 0 1-.352.076" fill="#000"/><path d="M450.217 242.47c-3.121-10.004.83-15.321.83-15.321-2.668-.529-3.7.378-3.7.378-1.459-2.999-.327-5.141-.327-5.141-5.512-2.142-8.255 1.436-13.238 2.621-6.821 1.663-15.253-1.084-16.033-9.4-.126-1.209 1.208-1.991 2.215-1.31a6.17 6.17 0 0 0 3.725 1.083s-1.435-1.612-1.51-3.855c-.05-1.235 1.409-1.89 2.341-1.109 1.409 1.184 4.052 2.293 8.733 1.411 3.121-.579 10.269-5.594 14.724-4.611 3.649.806 6.518 3.906 7.777 8.341 0 0 8.935.932 9.841 10.785.881 9.677-10.319 17.111-10.319 17.111z" fill="#000"/><path d="M448.983 240.807c-2.365 1.336-3.397 4.007-2.29 5.947 1.108 1.941 3.901 2.42 6.267 1.084s3.398-4.007 2.29-5.947c-1.082-1.941-3.901-2.419-6.267-1.084" fill="#F37A50"/><path d="M449.386 246.628a.7.7 0 0 1-.176-.201c-.654-1.21-.554-2.445.277-3.301.855-.882 2.215-1.134 3.272-.605.302.151.402.504.277.806-.151.303-.504.403-.806.277-.579-.277-1.384-.126-1.888.378-.453.479-.503 1.16-.075 1.89.151.278.05.656-.227.807-.251.101-.478.075-.654-.051" fill="#DE623C"/><path d="M424.394 246.024c-.227-.378.1-.857.528-.756 1.108.226 2.945.579 4.707.73s3.624.152 4.757.101c.453-.025.679.504.377.832-.906 1.033-2.718 2.545-5.436 2.293-2.693-.227-4.228-2.041-4.933-3.2" fill="#fff"/><path d="M413.043 260.136s.402-1.084-34.431-.807l-9.337 11.038c9.664 7.761 42.031 9.147 42.031 9.147z" fill="#201D40"/><path d="m425.702 259.228 10.974-1.033 10.621 2.974-11.955 12.348z" fill="#95A6DB"/><path d="M429.503 264.898c4.48 3.68 5.386 6.225 14.9 1.311l1.434-14.641-15.478-1.21z" fill="#F37A50"/><path d="m450.116 267.066-3.247-1.286.428-4.611-9.035 7.257-2.542.404-2.442-.857-7.601-8.745-.377 4.612-2.869.58-10.37 1.688-1.233 57.557-4.078 19.58c13.743 4.587 29.121 5.721 44.222 3.629l-.504-19.656 10.722-56.272z" fill="#95A6DB"/><path d="m433.731 274.651-6.493 43.949 3.599 5.014 4.681-3.603 1.611-45.007z" fill="#2C2858"/><path d="m433.354 269.46 2.366-.63 2.416 1.058-1.007 5.216-3.423-.302zm-7.803-9.854-1.636 53.097-7.022 34.196s-11.099-1.109-17.92-7.61l8.734-25.729 2.995-53.777z" fill="#2C2858"/><path d="m425.551 259.606-1.636 52.366-8.079-40.144z" fill="#494C7F"/><path d="m448.128 262.983-14.422 86.083s19.128 2.344 26.981-2.822l-4.279-28.3 5.21-48.031z" fill="#2C2858"/><path d="m448.128 262.983-8.407 50.451 15.076-38.052z" fill="#494C7F"/><path d="M352.89 212.382c.755 2.696 1.007 5.594 4.404 7.03 0 0-.503 8.921-.126 16.229l8.231-9.299c-.479-2.948-.856-8.517-.403-11.692.126-.832.277-1.638.403-2.47.352-1.991.931-4.032-.277-6.451-4.707-9.324-3.121-12.399-3.776-12.852-1.057-.454-3.523 1.411-2.114 5.997 1.359 4.436 1.007 6.603 1.007 6.603s-3.549-.681-4.807.579c-.554.555-3.448 3.176-2.542 6.326" fill="#F37A50"/><path d="M354.803 224.931c4.807-1.613 7.324-2.318 11.049-2.318 8.834 26.334 15.101 36.237 12.483 43.797-2.189 6.3-9.111 5.796-12.483 1.084-4.455-6.25-8.407-29.887-11.049-42.563m106.865 44.982 27.786 43.521 33.022 18.673-10.194 10.13-33.096-14.515-22.753-32.105z" fill="#201D40"/><path d="M435.719 268.83s-4.077 4.132-7.852 5.191l-4.455-11.769 2.265-3.024zm0 0s2.341 4.006 6.796 6.501l6.468-10.76-1.686-3.427z" fill="#fff"/><path d="M465.972 392.763H223.297c-5.713 0-10.319-3.125-10.319-6.955s4.631-6.955 10.319-6.955h242.675c5.713 0 10.319 3.125 10.319 6.955 0 3.856-4.606 6.955-10.319 6.955" fill="#95A6DB"/><path d="M314.256 490.816c-2.592 0-4.153-2.898-2.743-5.065l64.079-98.305 5.487 3.578L317 489.33a3.26 3.26 0 0 1-2.744 1.486" fill="#95A6DB"/><path d="M375.013 490.816c2.592 0 4.153-2.898 2.743-5.065l-64.079-98.305-5.486 3.578 64.079 98.306c.629.932 1.661 1.486 2.743 1.486" fill="#95A6DB"/><path d="M475.637 489.254a3.15 3.15 0 0 1-3.146-3.15v-55.642h6.267v55.642a3.11 3.11 0 0 1-3.121 3.15m22.022 0a3.15 3.15 0 0 1-3.146-3.15v-55.642h6.267v55.642c0 1.739-1.409 3.15-3.121 3.15m28.869 0a3.15 3.15 0 0 1-3.146-3.15v-55.642h6.267v55.642a3.11 3.11 0 0 1-3.121 3.15m22.022 0a3.15 3.15 0 0 1-3.146-3.15v-55.642h6.267v55.642c0 1.739-1.409 3.15-3.121 3.15" fill="#768FDB"/><path d="M513.843 347.882v66.226c0 .756-.604 1.36-1.359 1.36h-41c-4.128 0-7.5 3.352-7.5 7.51 0 4.133 3.347 7.51 7.5 7.51h49.859c4.128 0 7.5-3.352 7.5-7.51v-75.096c0-4.133-3.347-7.51-7.5-7.51-4.153.026-7.5 3.377-7.5 7.51" fill="#95A6DB"/><path d="M553.735 340.398h-32.417v76.305h32.417z" fill="#95A6DB"/><path d="M546.26 347.882v66.226c0 .756-.604 1.36-1.359 1.36h-41.025c-4.128 0-7.5 3.352-7.5 7.51 0 4.133 3.347 7.51 7.5 7.51h49.859c4.128 0 7.5-3.352 7.5-7.51v-75.096c0-4.133-3.347-7.51-7.5-7.51-4.128.026-7.475 3.377-7.475 7.51M210.587 489.254a3.15 3.15 0 0 0 3.146-3.15v-55.642h-6.267v55.642a3.11 3.11 0 0 0 3.121 3.15m-22.022 0a3.15 3.15 0 0 0 3.146-3.15v-55.642h-6.267v55.642a3.11 3.11 0 0 0 3.121 3.15m-28.894 0a3.15 3.15 0 0 0 3.146-3.15v-55.642h-6.267v55.642c0 1.739 1.409 3.15 3.121 3.15m-21.997 0a3.15 3.15 0 0 0 3.146-3.15v-55.642h-6.267v55.642a3.11 3.11 0 0 0 3.121 3.15" fill="#768FDB"/><path d="M172.381 347.882v66.226c0 .756.604 1.36 1.359 1.36h41c4.127 0 7.5 3.352 7.5 7.51 0 4.133-3.347 7.51-7.5 7.51h-49.859c-4.128 0-7.5-3.352-7.5-7.51v-75.096c0-4.133 3.347-7.51 7.5-7.51 4.153.026 7.5 3.377 7.5 7.51" fill="#95A6DB"/><path d="M132.469 416.675h32.417V340.37h-32.417z" fill="#95A6DB"/><path d="M139.964 347.883v66.225c0 .756.604 1.361 1.359 1.361h41c4.127 0 7.5 3.352 7.5 7.51 0 4.132-3.347 7.509-7.5 7.509h-49.859a7.507 7.507 0 0 1-7.5-7.509v-75.096c0-4.133 3.347-7.51 7.5-7.51 4.127.025 7.5 3.377 7.5 7.51" fill="#768FDB"/><path d="M497.156 322.581c-6.922-2.495-17.618-7.963-10.495-17.942s6.921-5.62 4.354-17.766c-2.567-12.121 6.065-21.672 14.27-19.253s10.294 9.072 20.362 7.384c10.067-1.689 18.423 7.736 14.648 15.926-3.801 8.165-5.412 12.096-1.863 16.632s19.506 9.4 12.836 20.236c-6.669 10.836-9.715 10.18-7.399 15.724s-3.021 11.87-12.283 11.013-17.643-4.36-21.015-14.717c-3.398-10.332-13.415-17.237-13.415-17.237" fill="#2C2858"/><path d="m472.667 480.106-5.462 1.638-4.127-4.208c.201-.302 0-3.125-.63-6.124l10.219-1.688c.403 3.1 0 7.258 0 10.382" fill="#F37A50"/><path d="M467.231 480.762c-1.309-3.428-4.078-3.806-4.078-3.806-5.411 7.208-18.675 2.798-18.222 12.55 20.16-.126 28.541 0 28.541 0-.025-2.243-.428-7.56-.881-9.652l-1.057.177z" fill="#254CE6"/><path d="m436.298 481.14-5.688.378-3.272-3.503c.252-.252.881-4.561.906-7.636l9.59.429c-.277 3.15-.831 7.257-1.536 10.332" fill="#F37A50"/><path d="M431.24 480.762c-1.309-3.428-4.078-3.806-4.078-3.806-5.411 7.208-18.675 2.798-18.222 12.55 20.16-.126 28.541 0 28.541 0-.025-2.243-.428-7.56-.881-9.652l-1.057.177z" fill="#254CE6"/><path d="M493.884 385.833c-15.529 2.092-59.322 18.346-61.764 21.269-5.033 6.073-2.391 39.11-4.782 66.352l12.736.756c6.09-22.202 5.612-31.778 8.356-57.23 0 0 50.009 3.755 68.08-8.467 18.65-12.6-10.067-25.679-22.626-22.68" fill="#0E6A41"/><path d="M473.623 353.476c3.675.63 5.084 3.579 5.965 9.022-13.993 8.24-34.783 8.845-34.783 8.845l-6.619-3.276c0-.025 16.687-6.023 35.437-14.591" fill="#DE623C"/><path d="M511.879 337.953c-6.116 8.896-29.573 28.073-33.474 28.678l-4.706-13.18s22.903-24.822 27.081-29.207c7.198-7.635 21.116-.831 11.099 13.709" fill="#DE623C"/><path d="M486.082 336.517c4.908-5.292 11.3-17.262 19.631-16.405s8.935 9.702 6.418 14.464-11.175 16.481-11.175 16.481z" fill="#1B3263"/><path d="M487.592 358.92c3.523 1.209 5.537 12.348 4.555 13.179-15.126 5.998-46.587-.479-46.587-.479l-1.661-5.695s23.81-1.461 43.693-7.005" fill="#F37A50"/><path d="M537.35 395.182c-3.448-17.866-4.958-24.192-6.393-32.608-3.549-20.765 6.896-35.381-10.999-45.335l-13.037 2.117c-10.546 11.113-17.039 21.193-17.593 28.148-.755 8.996 8.13 13.86 8.13 13.86l-3.574 24.469s-.831 1.991 13.868 4.788c14.698 2.772 29.598 4.561 29.598 4.561" fill="#254CE6"/><path d="M526.628 340.473c-6.116 9.022-32.291 31.903-36.217 32.105l-2.819-13.658s23.759-27.897 27.937-32.332c7.198-7.686 21.116-.806 11.099 13.885" fill="#F37A50"/><path d="M501.611 340.549c4.58-6.653 13.792-18.925 22.098-18.094 8.331.857 8.935 9.702 6.418 14.465s-11.175 16.481-11.175 16.481z" fill="#1B3263"/><path d="M443.899 365.925c-4.807-1.184-15.277-4.712-19.48 6.325 1.057 2.016 4.933-2.973 6.594-3.427 2.643-.731 4.908.655 6.896 2.571 2.87 2.746 7.652.252 7.652.252z" fill="#F37A50"/><path d="M440.149 378.752h-45.177v-6.073h51.243a6.073 6.073 0 0 1-6.066 6.073" fill="#1B3263"/><path d="m371.716 340.574 23.23 38.153 5.361-2.823-26.024-43.52c-2.97 1.562-4.102 5.216-2.567 8.19" fill="#1B3263"/><path d="M525.923 300.229c-2.189 9.198-9.815 15.246-17.039 13.507-7.198-1.739-11.275-10.584-9.06-19.757 2.189-9.198 9.815-15.246 17.039-13.507 7.198 1.714 11.25 10.559 9.06 19.757" fill="#F37A50"/><path d="m522.425 305.067-11.98 7.434s-1.057 5.292-1.586 7.031c-1.082 3.553 3.096 5.09 6.645 2.898 3.548-2.218 4.454-5.166 4.454-5.166z" fill="#F37A50"/><path d="M498.993 290.476c3.398.303 10.772-.302 13.465-3.502 1.913 6.476 10.068 12.65 16.813 15.548.277-6.653.226-18.875-11.678-23.965-9.363-4.007-18.6 11.919-18.6 11.919" fill="#2C2858"/><path d="M503.196 296.398c-.327.63-1.082.908-1.736.58-.629-.328-.906-1.084-.579-1.739.327-.63 1.082-.907 1.737-.579.629.302.906 1.083.578 1.738m10.118 2.495c-.352.681-1.183.983-1.862.63-.68-.353-.982-1.184-.63-1.865.353-.68 1.183-.982 1.863-.63.679.353.981 1.16.629 1.865" fill="#000"/><path d="M514.874 297.734a.5.5 0 0 1-.226-.227c-.705-1.512-2.592-1.814-2.618-1.814-.276-.051-.453-.277-.402-.555.05-.277.277-.453.553-.403.101.025 2.417.353 3.348 2.369.1.252 0 .529-.227.655a.62.62 0 0 1-.428-.025m-14.471-3.226c-.051-.025-.101-.05-.126-.1-.177-.202-.177-.504 0-.681 1.485-1.461 3.297-.857 3.372-.831.252.075.378.352.302.63-.075.252-.352.378-.604.302-.05-.025-1.334-.428-2.391.605a.46.46 0 0 1-.553.075" fill="#2C2858"/><path d="M504.027 299.196c-.705.73-1.334 1.486-2.014 1.915a.524.524 0 0 0-.176.68c.554.958 2.139 1.764 3.121 2.193.151.05.252-.126.151-.227-.981-.857-1.409-1.512-1.586-1.865-.1-.176-.075-.378 0-.554.202-.404.604-1.21.881-1.89.101-.252-.201-.429-.377-.252" fill="#DE623C"/><path d="M522.45 300.279c-1.762 1.361-2.265 3.629-1.158 5.065s3.449 1.487 5.185.126c1.762-1.36 2.265-3.628 1.158-5.065-1.108-1.411-3.423-1.487-5.185-.126" fill="#F37A50"/><path d="M523.457 304.941c-.076-.025-.126-.075-.176-.151-.68-.907-.73-1.89-.176-2.696.578-.807 1.661-1.185 2.567-.882a.46.46 0 0 1 .302.604.46.46 0 0 1-.604.303c-.504-.177-1.133.075-1.46.529-.327.428-.252.983.151 1.537.151.227.126.529-.101.681a.425.425 0 0 1-.503.075" fill="#DE623C"/><path d="M511.25 388.681c-15.529 2.091-59.372 16.329-61.814 19.253-5.033 6.073 6.192 32.054 9.766 65.52h15c-.151-23.84 1.737-45.789-5.587-53.55 0 0 42.031-2.798 62.971-2.798 10.697 0 16.612-36.136-20.336-28.425" fill="#338141"/><path d="M503.372 306.932c-.201-.277.026-.68.353-.63.881.101 2.34.252 3.725.252 1.384 0 2.844-.151 3.725-.252.352-.05.579.353.352.63-.629.857-1.963 2.167-4.077 2.167s-3.448-1.31-4.078-2.167" fill="#fff"/><path d="M204.974 362.977c-2.97 1.965-2.139 12.751-1.032 13.305 15.429 1.89 41.503-10.911 41.503-10.911l1.032-5.721c-.025-.025-21.796 3.629-41.503 3.327" fill="#F37A50"/><path d="M171.072 344.304c5.512 8.82 29.649 31.676 33.399 32.004l3.196-12.953s-21.67-27.519-25.495-31.903c-6.595-7.611-20.135-1.563-11.1 12.852" fill="#F37A50"/><path d="M184.261 297.104c.654-9.047-1.938-17.035-9.162-21.092-7.299-4.133-16.435-.076-16.435-.076s-7.752-2.747-14.748 4.99c-7.022 7.736-1.712 14.54-4.581 20.185-1.712 3.351-10.344 4.032-8.104 14.918.654 3.15 4.404 5.242 7.6 5.469 5.613.378 10.848-1.815 13.113.378 7.501 7.156 24.112 4.561 26.427-1.966.73-2.041 15.655 1.89 14.17-11.92-.755-7.081-8.884-2.822-8.28-10.886" fill="#2C2858"/><path d="m170.569 326.336-11.854-2.192-4.455 5.922 9.463 19.404 13.893-11.819z" fill="#F37A50"/><path d="M185.947 373.107c-.201-3.704 5.764-18.849 2.618-26.485-2.291-6.149-6.091-16.456-10.773-18.169-2.214-.807-4.48-1.386-7.223-2.142 0 0 1.56 7.736-1.686 7.988-6.217.504-10.194-10.181-10.194-10.181-3.347-.327-18.725 4.738-18.725 5.998.025 9.904 8.079 24.343 10.697 35.053 1.032 11.567-2.995 25.402-3.02 26.712 0 0 24.74 6.955 39.413-1.109.328-1.109-.83-12.549-1.107-17.665" fill="#4C85A8"/><path d="M151.391 380.037s-5.462 13.785-6.796 22.479 6.191 14.263 6.191 14.263h62.494s6.695-10.861 4.757-18.371-6.368-8.694-6.368-8.694z" fill="#4C85A8"/><path d="M214.136 389.311c-7.979-1.134-31.134 7.887-41.025 27.443h27.635z" fill="#DE623C"/><path d="M205.377 396.518c1.032-1.134 1.963-2.52 2.794-3.982 2.34-4.107 7.953-4.813 11.124-1.31 11.527 12.726 36.067 41.706 41.553 45.31 1.536 1.008 10.571 6.224 19.154 5.191 0 0 4.228 1.613 1.409 4.989-1.46 1.739-23.256 3.528-23.256 3.528l-1.711-6.4c-12.685-9.4-28.491-8.72-41.881-25.931-7.399-9.475-9.186-21.395-9.186-21.395" fill="#DE623C"/><path d="m262.56 453.949 8.784 5.695 1.208-1.436-7.123-6.653c4.052-3.201 13.415-.529 13.415-.529 3.07-1.991 9.035-8.417 9.665-11.87-1.963-2.444-8.507 2.596-8.507 2.596.251 1.084-1.838 4.864-3.474 5.519-7.147 1.537-14.27-.479-20.084-3.453 0 .026-4.858 7.384 6.116 10.131" fill="#254CE6"/><path d="M205.251 398.257c-1.585.428-2.793 1.764-3.02 3.402-.629 4.435-3.851 13.431.503 22.831 10.722 23.108 17.04 38.329 18.172 44.302-2.794 5.241 8.356 19.58 8.532 20.538l8.029-2.52s-4.606-6.88-6.267-9.551c-3.951-6.401-4.606-14.263-5.235-20.362-2.743-26.006 1.963-42.411-16.813-57.683-1.107-.882-2.516-1.335-3.901-.957" fill="#F37A50"/><path d="m216.904 479.804.781 10.433 1.862.075.956-9.702c4.984 1.286 8.558 10.358 8.558 10.358 3.423 1.234 12.181 2.091 15.277.504.755-3.05-7.223-5.192-7.223-5.192-.73.857-4.984 1.512-6.494.58-5.562-4.763-8.582-11.642-9.765-18.068.05 0-8.432.604-3.952 11.012" fill="#254CE6"/><path d="m167.574 316.634-9.64-1.436.755 8.946s1.838 4.057 3.977 4.334l7.878-2.142z" fill="#F37A50"/><path d="M149.025 303.681c2.491 10.408 11.124 17.237 19.279 15.297 8.154-1.966 12.76-11.97 10.268-22.378s-11.124-17.237-19.279-15.296c-8.154 1.965-12.76 11.995-10.268 22.377" fill="#F37A50"/><path d="M174.747 299.347c.352.731 1.233 1.008 1.963.655s1.007-1.235.654-1.966-1.233-1.008-1.963-.655a1.44 1.44 0 0 0-.654 1.966m-11.452 2.822a1.56 1.56 0 0 0 2.114.706 1.56 1.56 0 0 0 .705-2.117 1.56 1.56 0 0 0-2.114-.706 1.56 1.56 0 0 0-.705 2.117" fill="#000"/><path d="M161.533 300.859a.6.6 0 0 0 .252-.252c.78-1.714 2.92-2.041 2.945-2.041a.545.545 0 0 0 .453-.63.544.544 0 0 0-.629-.454c-.101.025-2.744.403-3.801 2.671a.554.554 0 0 0 .277.731c.201.05.378.05.503-.025m16.385-3.629c.05-.025.101-.05.151-.101a.58.58 0 0 0 0-.781c-1.686-1.663-3.75-.958-3.825-.932a.587.587 0 0 0-.353.705.587.587 0 0 0 .705.353c.075-.025 1.51-.479 2.693.68.176.126.428.177.629.076" fill="#2C2858"/><path d="M173.79 302.522c.806.832 1.511 1.663 2.266 2.167a.594.594 0 0 1 .201.781c-.629 1.084-2.416 1.991-3.524 2.47-.151.076-.302-.151-.151-.252 1.108-.983 1.586-1.688 1.787-2.092a.7.7 0 0 0 0-.63 32 32 0 0 1-.981-2.142c-.126-.302.226-.504.402-.302" fill="#DE623C"/><path d="M152.951 303.757c1.988 1.537 2.567 4.107 1.309 5.745-1.259 1.613-3.901 1.689-5.865.152-1.988-1.538-2.567-4.108-1.308-5.746 1.258-1.638 3.876-1.688 5.864-.151" fill="#F37A50"/><path d="M151.818 309.024c.076-.026.151-.101.202-.152.755-1.008.83-2.142.201-3.049-.654-.907-1.888-1.335-2.894-1.008a.566.566 0 0 0-.353.706.565.565 0 0 0 .705.353c.554-.177 1.283.075 1.661.604.352.504.302 1.109-.176 1.739a.585.585 0 0 0 .101.781c.151.101.377.101.553.026" fill="#DE623C"/><path d="M164.78 310.813c-.226-.303.025-.756.403-.706.982.126 2.592.277 4.128.277 1.535 0 3.146-.151 4.127-.277.378-.05.629.378.403.706-.705.957-2.165 2.394-4.53 2.394s-3.826-1.437-4.531-2.394" fill="#fff"/><path d="M148.823 302.774c9.741-1.31 23.357-11.239 24.464-16.33-1.887-6.123-11.904-9.198-17.567-6.35-5.663 2.822-11.024 14.969-6.897 22.68" fill="#2C2858"/><path d="M239.883 376.484a2.487 2.487 0 0 1-1.585-3.125l15.025-46.091c.428-1.285 1.812-2.016 3.121-1.587a2.487 2.487 0 0 1 1.586 3.125l-15.026 46.09a2.503 2.503 0 0 1-3.121 1.588" fill="#fff"/><path d="m247.887 359.953 3.07-9.4s2.643 5.393 0 10.534c-2.643 5.115-5.185 5.367-5.185 5.367zm-4.38-2.52c-.78-1.815-2.592-6.376-.78-6.351s2.114 2.243 2.114 2.243zM92.974 329.99c4.128-4.183 1.41-8.442 1.41-8.442 2.265-.479 14.22 17.665 19.38 29.182 9.01-9.072 24.841-21.345 29.145-22.05 0 0 5.789-1.563 7.852 5.443 1.863 6.249-5.386 10.685-5.386 10.685s-30.957 21.873-35.513 19.933c-7.097-3.024-13.54-29.081-16.888-34.751" fill="#F37A50"/><path d="M86.506 329.486c2.517.151 5.638-1.084 6.62 1.159l4.983-2.444.302-2.999c-4.279-6.88-14.724-8.82-15.756-8.921-2.693-.227-3.926-.504-4.153-.151-.2.353-.855 2.747 3.02 3.226 4.883.579 1.637 4.51-8.28.781-2.491-.933-7.148.277-5.461 2.091 1.887 2.016 7.248 6.552 18.725 7.258" fill="#F37A50"/><path d="M356.514 189.576c0 2.268-.378 4.485-1.133 6.577-3.649 10.508-15.881 18.245-30.378 18.245s-26.729-7.737-30.378-18.245a20 20 0 0 1-1.133-6.577z" fill="#318D37"/><path d="M356.514 189.576c0 2.268-.378 4.485-1.133 6.577h-60.756a20 20 0 0 1-1.133-6.577z" fill="#4C85A8"/><path d="M390.995 83.181c0-36.439-29.498-65.999-65.866-66.049-35.891-.05-65.413 28.904-66.068 64.84-.277 15.724 4.933 30.214 13.818 41.68 11.25 14.516 17.517 32.307 17.517 50.678v.327h69.264v-.327c0-18.396 6.292-36.188 17.542-50.753 8.633-11.164 13.793-25.175 13.793-40.396" fill="#FFE91D"/><path d="M334.995 167.173c-.176 0-.378-.025-.554-.101a1.677 1.677 0 0 1-1.032-2.142c.076-.227 7.853-22.655 13.516-45.511 10.017-40.497 4.857-47.099 2.189-48.031-7.877-2.798-14.169 1.335-18.045 5.292a34 34 0 0 0-3.272 3.906c1.686 2.923 3.196 6.148 4.48 9.55 3.498 9.35 4.429 18.069 2.491 23.361-1.485 4.057-4.681 6.123-8.96 5.821-4.027-.302-6.996-2.646-8.532-6.754-1.787-4.737-1.535-11.667.629-19.05 1.385-4.663 3.423-9.148 5.915-13.03-2.315-3.678-5.008-6.854-7.953-8.996-4.329-3.175-8.406-3.3-12.131-.403-7.652 5.973-7.929 23.965-.856 52.013 5.461 21.622 13.49 41.605 13.566 41.807.352.857-.076 1.839-.932 2.192-.855.353-1.837-.075-2.189-.932-.076-.202-8.18-20.387-13.692-42.21-7.55-29.887-6.871-48.56 2.039-55.516 4.882-3.83 10.646-3.704 16.183.353 2.769 2.041 5.537 5.065 8.029 8.795a35 35 0 0 1 2.768-3.2c6.444-6.603 14.12-8.77 21.57-6.124 4.656 1.638 6.544 7.913 5.814 19.127-.529 8.29-2.517 19.353-5.864 32.911-5.689 23.007-13.516 45.561-13.591 45.788-.227.63-.881 1.084-1.586 1.084m-9.262-83.437a47.5 47.5 0 0 0-4.606 10.66c-1.938 6.602-2.215 12.927-.705 16.908 1.083 2.873 2.92 4.385 5.638 4.587 2.794.201 4.556-.933 5.537-3.604 2.215-6.073-.478-18.497-5.864-28.551" fill="#fff"/><path d="M353.821 191.743h-57.586c-6.871 0-12.433-5.569-12.433-12.449v-.529c0-6.88 5.562-12.449 12.433-12.449h57.586c6.871 0 12.433 5.569 12.433 12.449v.529c-.025 6.88-5.587 12.449-12.433 12.449" fill="#318D37"/><path d="M437.104 85.878h-21.57a5.57 5.57 0 0 1-5.562-5.57 5.57 5.57 0 0 1 5.562-5.569h21.57a5.57 5.57 0 0 1 5.562 5.57c-.025 3.074-2.492 5.569-5.562 5.569m-202.582 0h-21.569a5.57 5.57 0 0 1-5.563-5.57 5.57 5.57 0 0 1 5.563-5.569h21.569a5.567 5.567 0 0 1 5.562 5.57c-.025 3.074-2.491 5.569-5.562 5.569m13.692-45.688-17.165-13.079a5.58 5.58 0 0 1-1.057-7.812 5.565 5.565 0 0 1 7.802-1.058l17.165 13.079a5.58 5.58 0 0 1 1.057 7.812c-1.862 2.444-5.361 2.923-7.802 1.058m152.496 0 17.165-13.079a5.58 5.58 0 0 0 1.057-7.812 5.565 5.565 0 0 0-7.802-1.058L393.965 31.32a5.58 5.58 0 0 0-1.057 7.812c1.862 2.444 5.361 2.923 7.802 1.058m-152.496 87.167-17.165 13.079a5.58 5.58 0 0 0-1.057 7.812 5.565 5.565 0 0 0 7.802 1.058l17.165-13.079a5.58 5.58 0 0 0 1.057-7.812c-1.862-2.444-5.361-2.923-7.802-1.058m152.496 0 17.165 13.079a5.58 5.58 0 0 1 1.057 7.812 5.565 5.565 0 0 1-7.802 1.058l-17.165-13.079a5.58 5.58 0 0 1-1.057-7.812c1.862-2.444 5.361-2.923 7.802-1.058" fill="#FFE91D"/><path d="M339.324 355.442s-4.958-9.374-6.947-19.303c-1.736-8.493-1.635-18.648-1.434-24.066.05-1.235 1.661-1.663 2.315-.605 3.121 5.116 8.759 15.372 10.043 24.671a198 198 0 0 1 1.761 19.303z" fill="#3F964F"/><path d="M344.509 355.442s3.297-11.466 6.946-19.102c2.643-5.544 8.658-12.196 11.754-15.422.579-.605 1.611-.076 1.46.756-.806 4.234-2.618 12.6-5.613 18.295-4.178 7.938-11.099 15.498-11.099 15.498h-3.448z" fill="#3F964F"/><path d="M327.495 345.286c-.478-.932.402-1.965 1.409-1.638a20.1 20.1 0 0 1 6.796 3.957c3.699 3.377 4.379 7.207 4.379 7.207l-1.284.428c.026 0-6.871-1.26-11.3-9.954m25.898-26.787c-.075-1.185-1.611-1.613-2.29-.655-2.593 3.603-6.921 10.684-8.331 19.378-1.787 10.836.302 18.22.302 18.22h1.46s5.386-10.206 7.475-17.136c1.963-6.502 1.711-15.196 1.384-19.807m-5.461 36.943s3.095-10.332 13.691-14.263c.604-.227 1.208.403.957 1.008-1.385 3.402-5.386 11.567-12.106 13.255z" fill="#0E6A41"/><path d="M357.294 353.703H332.78l3.146 25.15h18.222z" fill="#768FDB"/><path d="M330.943 373.384v3.604h.982c.478 0 .855.378.855.857v.151a.85.85 0 0 1-.855.857h-41.856a1.01 1.01 0 0 1-1.007-1.008v-5.191a1.01 1.01 0 0 1 1.007-1.008h41.856c.478 0 .855.378.855.856a.85.85 0 0 1-.855.857h-.982z" fill="#254CE6"/><path d="M331.069 376.988h-36.595a.73.73 0 0 1-.73-.731v-2.142c0-.403.327-.731.73-.731h36.595z" fill="#fff"/><path d="M285.363 365.572v4.007h-.982c-.478 0-.856.429-.856.958v.151c0 .529.378.958.856.958h41.855c.554 0 1.007-.504 1.007-1.109v-5.746c0-.605-.453-1.109-1.007-1.109h-41.855c-.478 0-.856.429-.856.958s.378.958.856.958h.982z" fill="#3F964F"/><path d="M285.237 369.579h36.57c.428 0 .78-.353.78-.781v-2.444a.785.785 0 0 0-.78-.782h-36.57z" fill="#fff"/><path d="M326.614 359.978h-38.156c-.83 0-1.535-.68-1.535-1.537v-3.427c0-.832.68-1.538 1.535-1.538h38.156c.83 0 1.535.681 1.535 1.538v3.427c0 .831-.679 1.537-1.535 1.537" fill="#254CE6"/><path d="M329.685 363.682h-38.911a1.17 1.17 0 0 1-1.158-1.159v-1.386c0-.63.529-1.159 1.158-1.159h38.911c.629 0 1.157.529 1.157 1.159v1.386c0 .63-.528 1.159-1.157 1.159" fill="#768FDB"/></svg>